<svg width="143" height="46" viewBox="0 0 143 46" fill="none" xmlns="http://www.w3.org/2000/svg">
<g clip-path="url(#clip0_5_1286)">
<path d="M27.9326 28.0933C27.0259 28.2294 24.6449 28.0544 23.3598 27.792C20.3769 27.182 18.0008 25.9379 16.0376 23.8092C16.828 23.4786 17.5668 23.0384 18.2318 22.5018C20.1779 25.3279 22.9839 27.2671 26.446 27.9062C26.9332 27.9966 27.4255 28.0575 27.9203 28.0884C27.9203 28.0884 27.9252 28.0933 27.9326 28.0933Z" fill="#C1D82F"/>
<path d="M27.9204 28.0884C27.4257 28.0575 26.9333 27.9967 26.4461 27.9062C22.984 27.2671 20.178 25.328 18.2319 22.5019C18.9316 21.9596 19.5554 21.328 20.0871 20.6235C21.5859 24.4167 25.2642 27.5271 27.9204 28.0884Z" fill="#00AECA"/>
<path d="M21.8686 10.2303C21.9413 9.74739 21.984 9.26047 21.9963 8.77234C22.2621 10.1945 22.287 11.6505 22.07 13.0807C21.1634 19.1728 16.0918 23.7387 9.82862 24.7861L6.08887 21.6271C13.9369 22.0499 20.8267 17.1996 21.8686 10.2303Z" fill="#C1D82F"/>
<path d="M0 16.5921C1.38091 17.2093 3.45718 18.0209 5.05186 18.2566C12.6935 19.3769 19.7946 15.2386 22.006 8.7796C21.9937 9.26773 21.951 9.75465 21.8783 10.2376C20.8266 17.1996 13.9368 22.0499 6.08877 21.627L0 16.5921Z" fill="#00AECA"/>
<path d="M24.4607 4.6826C23.8499 3.76891 23.5789 2.67375 23.6941 1.58435C23.6941 1.55033 23.7359 1.34135 23.7432 1.29761C17.9592 2.99861 13.2267 7.19523 12.3766 12.8693C12.1607 14.3023 12.1956 15.7613 12.4798 17.1826C12.4913 16.6945 12.5331 16.2076 12.6051 15.7245C13.4552 10.0651 18.3032 5.832 24.4607 4.6826Z" fill="#C1D82F"/>
<path d="M28.4756 6.60232C26.9645 6.50755 25.5664 6.18679 24.4607 4.68262C18.3031 5.83201 13.4552 10.0651 12.6099 15.7076C12.538 16.1906 12.4962 16.6775 12.4846 17.1656C13.1038 14.8838 14.5339 12.41 18.136 9.83909C22.3082 6.8599 28.5026 6.60232 28.4756 6.60232Z" fill="#00AECA"/>
<path d="M27.9425 4.47607C29.1923 4.47607 30.2055 3.47407 30.2055 2.23803C30.2055 1.002 29.1923 0 27.9425 0C26.6926 0 25.6794 1.002 25.6794 2.23803C25.6794 3.47407 26.6926 4.47607 27.9425 4.47607Z" fill="#C1D82F"/>
<path d="M32.0925 27.9305C31.0723 27.6694 30.1066 27.2326 29.2397 26.6401L30.7779 23.7557C31.5445 24.3029 32.3959 24.7231 33.2989 24.9999C34.2267 25.2927 35.1949 25.4411 36.1688 25.4397C37.2107 25.4397 38.0346 25.2704 38.6407 24.9319C39.2468 24.5933 39.5531 24.1316 39.5597 23.5468C39.5598 23.3141 39.4912 23.0866 39.3625 22.8919C39.2337 22.6972 39.0504 22.544 38.8348 22.4508C38.0943 22.1029 37.3206 21.8285 36.5251 21.6319C35.6452 21.3862 34.7804 21.0901 33.9353 20.745C33.2602 20.4583 32.662 20.0198 32.1883 19.4643C31.6969 18.8941 31.4512 18.14 31.4512 17.202C31.433 16.167 31.7565 15.1544 32.3726 14.3176C33.0432 13.4411 33.954 12.7732 34.9968 12.393C36.2522 11.9244 37.5866 11.6976 38.9282 11.7248C39.9816 11.7188 41.0319 11.8387 42.0561 12.082C42.948 12.2886 43.7991 12.64 44.5747 13.122L43.152 15.9846C42.5257 15.5602 41.8311 15.2438 41.0978 15.049C40.3227 14.8403 39.5227 14.7357 38.7194 14.738C37.6448 14.738 36.7971 14.9227 36.1762 15.292C35.5554 15.6614 35.2441 16.1385 35.2425 16.7233C35.2391 16.8891 35.2718 17.0536 35.3384 17.2058C35.4049 17.358 35.5038 17.4943 35.6283 17.6054C35.9221 17.8603 36.2635 18.0559 36.6332 18.1813C37.0362 18.3303 37.6038 18.5037 38.336 18.7013C39.2099 18.9229 40.0671 19.2047 40.9013 19.5445C41.5648 19.8222 42.1537 20.249 42.6213 20.7911C43.1179 21.399 43.3714 22.166 43.3338 22.9465C43.355 23.9876 43.0266 25.0062 42.4001 25.8431C41.7177 26.7106 40.8049 27.3736 39.7636 27.758C38.4983 28.235 37.1517 28.4661 35.7978 28.4384C34.5446 28.4436 33.297 28.2726 32.0925 27.9305Z" fill="#00AECA"/>
<path d="M58.9466 15.7489L56.4502 28.1614H52.9979L53.2313 26.9464C52.3394 27.7056 51.2367 28.1812 50.0672 28.3113C48.8978 28.4413 47.7159 28.2197 46.6757 27.6754C45.8522 27.2261 45.1715 26.5588 44.71 25.7484C44.2025 24.8424 43.948 23.8192 43.9728 22.7838C43.9537 21.4916 44.271 20.2163 44.8943 19.0804C45.4788 18.0124 46.3438 17.12 47.3981 16.4973C48.456 15.8753 49.6663 15.5525 50.897 15.5642C52.8267 15.5642 54.188 16.1871 54.9808 17.4329L55.3076 15.7489H58.9466ZM52.4155 24.8517C52.9781 24.5004 53.4301 24.0004 53.7203 23.4083C54.0424 22.7473 54.2024 22.0205 54.1871 21.2869C54.2063 20.9186 54.1491 20.5503 54.0189 20.2046C53.8888 19.859 53.6885 19.5434 53.4303 19.2773C52.9242 18.7913 52.2198 18.5483 51.3172 18.5483C50.6468 18.5344 49.9866 18.712 49.4157 19.0599C48.8448 19.4077 48.3874 19.9109 48.0984 20.5093C47.7762 21.1703 47.6163 21.8971 47.6315 22.6307C47.6112 22.9989 47.6682 23.3674 47.7988 23.7128C47.9295 24.0582 48.131 24.3732 48.3908 24.6378C48.8945 25.1239 49.5997 25.3669 50.5014 25.3669C51.176 25.3786 51.84 25.1999 52.4155 24.8517Z" fill="#00AECA"/>
<path d="M71.011 16.2324C71.8416 16.6781 72.5288 17.3459 72.9939 18.1594C73.5014 19.0654 73.7558 20.0886 73.731 21.124C73.7502 22.4162 73.4328 23.6915 72.8096 24.8274C72.2247 25.9026 71.3533 26.7989 70.29 27.4192C69.2266 28.0394 68.0118 28.36 66.7773 28.346C64.8657 28.346 63.5126 27.7312 62.7182 26.5016L61.4896 32.6374H57.8506L61.2562 15.7489H64.7084L64.4627 16.9639C65.5147 16.0254 66.892 15.5241 68.3081 15.5642C69.2515 15.5593 70.1809 15.7891 71.011 16.2324ZM68.2688 24.8517C68.832 24.5004 69.2848 24.0004 69.576 23.4082C69.8981 22.7472 70.0581 22.0204 70.0429 21.2868C70.0631 20.9188 70.0069 20.5506 69.8776 20.2049C69.7482 19.8593 69.5486 19.5435 69.291 19.2772C68.7873 18.7912 68.0821 18.5482 67.1803 18.5482C66.5135 18.5391 65.8579 18.7187 65.2908 19.0658C64.7275 19.4171 64.2748 19.917 63.9836 20.5092C63.6614 21.1702 63.5015 21.897 63.5167 22.6306C63.4953 22.9972 63.5496 23.3642 63.6763 23.7093C63.803 24.0544 63.9996 24.3703 64.2539 24.6378C64.7453 25.1238 65.4505 25.3668 66.3547 25.3668C67.0327 25.381 67.7005 25.2022 68.2786 24.8517H68.2688Z" fill="#00AECA"/>
<path d="M86.9456 16.6722C87.7647 17.4093 88.1742 18.4551 88.1742 19.8094C88.174 20.3063 88.1188 20.8018 88.0096 21.2868L86.6115 28.1613H82.9774L84.3312 21.5177C84.3951 21.237 84.4265 20.95 84.4246 20.6623C84.4423 20.3947 84.4039 20.1264 84.3117 19.8743C84.2195 19.6221 84.0756 19.3915 83.889 19.197C83.5302 18.8568 82.9946 18.6891 82.2795 18.6891C81.4325 18.659 80.6046 18.9424 79.9575 19.4838C79.3433 20.0151 78.9272 20.8113 78.7093 21.8724L77.4488 28.171H73.8098L77.2621 11.0516H80.9011L79.7364 16.8836C80.8262 16.0006 82.2004 15.5341 83.6088 15.569C85.0094 15.5658 86.1217 15.9335 86.9456 16.6722Z" fill="#00AECA"/>
<path d="M102.015 16.6601C102.834 17.3907 103.244 18.4332 103.244 19.7875C103.243 20.2917 103.188 20.7943 103.079 21.2868L101.679 28.1613H98.0396L99.3935 21.5177C99.4574 21.237 99.4887 20.95 99.4868 20.6623C99.5059 20.3954 99.469 20.1275 99.3785 19.8754C99.288 19.6233 99.1459 19.3923 98.961 19.197C98.6023 18.8568 98.0641 18.6891 97.3491 18.6891C96.5021 18.659 95.6742 18.9424 95.0271 19.4838C94.4145 20.0103 93.9984 20.8057 93.7789 21.87L92.5209 28.1686H88.8794L91.3758 15.7561H94.8306L94.5504 17.0926C95.6767 16.0767 97.157 15.5315 98.6809 15.5714C100.08 15.5666 101.191 15.9295 102.015 16.6601Z" fill="#00AECA"/>
<path d="M117.507 22.9247H107.895C108.019 24.6159 109.101 25.4616 111.138 25.4616C111.761 25.4639 112.38 25.3629 112.969 25.1627C113.531 24.9741 114.051 24.6813 114.502 24.3L116.021 26.6766C115.304 27.2364 114.489 27.6584 113.615 27.9207C112.693 28.2007 111.734 28.3408 110.77 28.3363C109.602 28.3621 108.442 28.1297 107.376 27.6559C106.45 27.2434 105.67 26.5664 105.136 25.7119C104.604 24.8262 104.333 23.8111 104.354 22.7813C104.335 21.4864 104.66 20.2093 105.298 19.078C105.913 17.9953 106.82 17.1021 107.917 16.4973C109.089 15.8625 110.409 15.5408 111.745 15.5642C112.837 15.5383 113.92 15.7672 114.905 16.2324C115.773 16.6544 116.497 17.3205 116.984 18.1473C117.486 19.026 117.741 20.0223 117.721 21.0317C117.713 21.6681 117.641 22.3021 117.507 22.9247ZM109.411 18.954C108.803 19.4351 108.363 20.093 108.153 20.8349H114.382C114.401 20.4857 114.342 20.1366 114.211 19.8119C114.08 19.4871 113.879 19.1944 113.622 18.954C113.055 18.4776 112.324 18.2341 111.581 18.2736C110.8 18.2504 110.035 18.4903 109.411 18.954Z" fill="#00AECA"/>
<path d="M121.137 11.0419H124.776L121.333 28.1613H117.697L121.137 11.0419Z" fill="#00AECA"/>
<path d="M126.899 27.6535C125.987 27.2308 125.218 26.5555 124.687 25.7095C124.155 24.8294 123.884 23.8188 123.906 22.7935C123.888 21.4976 124.228 20.2215 124.889 19.1023C125.536 18.0143 126.47 17.1207 127.591 16.5167C128.787 15.8758 130.129 15.5503 131.488 15.5715C132.64 15.5453 133.782 15.7823 134.825 16.264C135.736 16.6878 136.504 17.3629 137.037 18.208C137.569 19.0881 137.84 20.0987 137.818 21.124C137.838 22.4183 137.504 23.6939 136.85 24.8152C136.207 25.9066 135.271 26.8013 134.147 27.4007C132.944 28.0434 131.595 28.3689 130.228 28.346C129.079 28.3709 127.94 28.1339 126.899 27.6535ZM132.346 24.8517C132.909 24.5004 133.362 24.0005 133.653 23.4082C133.974 22.7468 134.134 22.0203 134.12 21.2868C134.14 20.92 134.086 20.553 133.959 20.2076C133.832 19.8623 133.636 19.5458 133.383 19.2772C132.891 18.7912 132.191 18.5482 131.282 18.5482C130.612 18.5344 129.951 18.712 129.381 19.0598C128.81 19.4076 128.352 19.9109 128.063 20.5092C127.741 21.1702 127.581 21.897 127.596 22.6306C127.576 22.9989 127.633 23.3673 127.764 23.7128C127.894 24.0582 128.096 24.3732 128.356 24.6378C128.847 25.1238 129.565 25.3668 130.466 25.3668C131.13 25.3748 131.781 25.1961 132.346 24.8517Z" fill="#00AECA"/>
<path d="M31.7338 33.6653C30.6158 35.1646 29.8222 37.1159 29.8222 39.8715C29.7803 42.064 30.4503 44.2119 31.7338 46H30.6945C29.7288 44.7437 28.6895 42.807 28.6895 39.8545C28.6895 36.9021 29.7288 34.9362 30.6945 33.6653H31.7338Z" fill="#5B6771"/>
<path d="M38.0683 42.4133C38.0608 43 38.0969 43.5864 38.1764 44.1678H36.9675L36.8569 43.2541H36.8102C36.5477 43.6006 36.2055 43.8803 35.812 44.07C35.4185 44.2598 34.9849 44.3541 34.5472 44.3452C33.0459 44.3452 32.2817 43.3003 32.2817 42.2408C32.2817 40.4693 33.874 39.5022 36.7341 39.5168V39.3661C36.7341 38.7756 36.567 37.6651 35.0509 37.6845C34.3633 37.6773 33.6882 37.8672 33.1073 38.2313L32.8026 37.3371C33.5489 36.9105 34.3979 36.6913 35.2598 36.7028C37.5253 36.7028 38.0756 38.2313 38.0756 39.682L38.0683 42.4133ZM36.7685 40.4305C35.2942 40.4013 33.6307 40.6564 33.6307 42.0804C33.6307 42.9577 34.213 43.3513 34.8863 43.3513C35.282 43.3634 35.6714 43.2511 35.9985 43.0306C36.3256 42.8102 36.5737 42.4928 36.707 42.1242C36.7471 41.9867 36.7677 41.8444 36.7685 41.7013V40.4305Z" fill="#5B6771"/>
<path d="M39.9333 38.8266C39.9333 38.0539 39.9185 37.4488 39.8718 36.8437H41.066L41.1422 38.0587H41.1741C41.4208 37.6332 41.7796 37.2819 42.2123 37.0422C42.6451 36.8026 43.1355 36.6836 43.6312 36.6979C44.6559 36.6979 46.2481 37.303 46.2481 39.8156V44.1726H44.8917V39.9469C44.8917 38.7659 44.447 37.7817 43.1717 37.7817C42.6562 37.802 42.169 38.0206 41.8142 38.3911C41.4594 38.7615 41.2649 39.2544 41.2724 39.7646V44.1678H39.9259L39.9333 38.8266Z" fill="#5B6771"/>
<path d="M49.6193 34.7855C49.6227 34.8964 49.6025 35.0067 49.5602 35.1093C49.5179 35.212 49.4543 35.3048 49.3735 35.3817C49.2927 35.4586 49.1966 35.5179 49.0912 35.5558C48.9859 35.5938 48.8737 35.6095 48.7618 35.602C48.6533 35.6048 48.5454 35.5854 48.4448 35.5452C48.3441 35.505 48.253 35.4447 48.1769 35.3681C48.1009 35.2915 48.0416 35.2003 48.0027 35.1C47.9638 34.9998 47.9462 34.8928 47.951 34.7855C47.9479 34.6755 47.9676 34.5659 48.0087 34.4636C48.0498 34.3613 48.1116 34.2683 48.1902 34.1904C48.2688 34.1124 48.3626 34.051 48.466 34.0101C48.5693 33.9691 48.68 33.9494 48.7913 33.952C48.9021 33.9493 49.0122 33.9691 49.1149 34.0102C49.2176 34.0513 49.3107 34.1128 49.3883 34.191C49.466 34.2691 49.5266 34.3622 49.5663 34.4645C49.606 34.5668 49.6241 34.6761 49.6193 34.7855ZM48.118 44.1678V36.8437H49.4645V44.1678H48.118Z" fill="#5B6771"/>
<path d="M51.531 44.1678V37.8498H50.5063V36.8365H51.531V36.489C51.531 35.4587 51.7767 34.5207 52.3885 33.9302C52.8776 33.4805 53.5244 33.2365 54.192 33.2498C54.5856 33.2461 54.9761 33.3179 55.342 33.4612L55.1577 34.4915C54.8885 34.3717 54.5952 34.3144 54.3002 34.3238C53.1527 34.3238 52.8627 35.308 52.8627 36.4428V36.8365H54.6515V37.8498H52.8627V44.1678H51.531Z" fill="#5B6771"/>
<path d="M55.5531 39.1231C55.5531 38.2604 55.5384 37.5193 55.4917 36.8389H56.6711L56.7326 38.2969H56.7792C57.1159 37.3249 57.9415 36.6931 58.8432 36.6931C58.9666 36.6949 59.0897 36.7047 59.2118 36.7222V37.9785C59.0604 37.9506 58.9062 37.94 58.7523 37.9469C57.8039 37.9469 57.1306 38.6443 56.9463 39.6479C56.915 39.853 56.8994 40.0602 56.8996 40.2676V44.1726H55.5531V39.1231Z" fill="#5B6771"/>
<path d="M66.7995 40.445C66.7995 43.1545 64.8878 44.333 63.1138 44.333C61.1235 44.333 59.5632 42.875 59.5632 40.5641C59.5632 38.1341 61.1997 36.6907 63.2342 36.6907C65.3596 36.6931 66.7995 38.2216 66.7995 40.445ZM60.9392 40.5204C60.9392 42.1242 61.8582 43.3367 63.1728 43.3367C64.4873 43.3367 65.4235 42.1412 65.4235 40.4912C65.4235 39.2495 64.7969 37.6918 63.2121 37.6918C61.6272 37.6918 60.9368 39.1425 60.9368 40.5204H60.9392Z" fill="#5B6771"/>
<path d="M68.1926 33.4223H69.5367V44.1678H68.1902L68.1926 33.4223Z" fill="#5B6771"/>
<path d="M77.6943 42.1557C77.6943 42.9285 77.7091 43.5943 77.7557 44.1678H76.5616L76.4854 42.9722H76.4535C76.2049 43.3963 75.8457 43.7465 75.4135 43.9863C74.9813 44.2261 74.4918 44.3467 73.9963 44.3355C72.8317 44.3355 71.4409 43.6842 71.4409 41.1254V36.8438H72.7874V40.8849C72.7874 42.2772 73.2297 43.2298 74.4386 43.2298C74.8232 43.2244 75.1975 43.106 75.5138 42.8896C75.8302 42.6733 76.0743 42.3688 76.2151 42.0148C76.2994 41.7969 76.3411 41.5652 76.338 41.332V36.8438H77.6845L77.6943 42.1557Z" fill="#5B6771"/>
<path d="M79.611 38.8266C79.611 38.0539 79.579 37.4488 79.5496 36.8438H80.7265L80.788 38.0393H80.8396C81.0631 37.6205 81.4012 37.2722 81.8152 37.0342C82.2292 36.7961 82.7025 36.6779 83.1812 36.6931C83.6388 36.6899 84.0859 36.8289 84.4593 37.0905C84.8327 37.3521 85.1136 37.7231 85.2624 38.1511H85.2919C85.4982 37.7752 85.786 37.4491 86.1347 37.1961C86.597 36.8411 87.1715 36.6594 87.7564 36.6834C88.7515 36.6834 90.2135 37.3176 90.2135 39.8618V44.1581H88.8989V40.0271C88.8989 38.6031 88.3633 37.772 87.292 37.772C86.9332 37.7867 86.5873 37.9089 86.3003 38.1225C86.0134 38.336 85.7988 38.6307 85.685 38.9676C85.6155 39.1829 85.5791 39.4074 85.5769 39.6334V44.1581H84.2623V39.7792C84.2623 38.6128 83.7414 37.7817 82.7168 37.7817C81.8888 37.7817 81.2622 38.4476 81.0484 39.1134C80.9718 39.322 80.9352 39.5428 80.9403 39.7646V44.1678H79.611V38.8266Z" fill="#5B6771"/>
<path d="M97.2777 42.4133C97.2707 42.9999 97.306 43.5862 97.3834 44.1678H96.1745L96.0737 43.2541H96.027C95.7643 43.6009 95.4217 43.8808 95.0277 44.0706C94.6337 44.2603 94.1997 44.3544 93.7616 44.3452C92.2627 44.3452 91.4961 43.3003 91.4961 42.2408C91.4961 40.4693 93.0883 39.5022 95.9509 39.5167V39.3661C95.9509 38.7756 95.7813 37.6651 94.2677 37.6845C93.58 37.6769 92.9048 37.8668 92.3241 38.2313L92.017 37.337C92.7635 36.9109 93.6123 36.6918 94.4741 36.7028C96.7396 36.7028 97.29 38.2313 97.29 39.682L97.2777 42.4133ZM95.9754 40.4304C94.5012 40.4013 92.8401 40.6564 92.8401 42.0804C92.8401 42.9576 93.42 43.3513 94.0933 43.3513C94.4891 43.3641 94.8789 43.2522 95.2062 43.0316C95.5334 42.811 95.7813 42.4932 95.914 42.1241C95.9554 41.9869 95.9761 41.8445 95.9754 41.7013V40.4304Z" fill="#5B6771"/>
<path d="M99.1428 33.4223H100.475V38.0247H100.497C100.971 37.2058 101.828 36.6931 103.023 36.6931C104.873 36.6931 106.16 38.2046 106.16 40.4159C106.16 43.033 104.475 44.3355 102.824 44.3355C101.752 44.3355 100.895 43.9248 100.33 42.9722H100.298L100.221 44.1678H99.074C99.1035 43.6818 99.1354 42.9285 99.1354 42.2772L99.1428 33.4223ZM100.475 41.2323C100.471 41.3963 100.491 41.5599 100.534 41.7183C100.644 42.1654 100.904 42.5626 101.271 42.8456C101.638 43.1287 102.09 43.2812 102.556 43.2784C103.978 43.2784 104.804 42.1436 104.804 40.462C104.804 39.004 104.04 37.738 102.593 37.738C102.119 37.7526 101.664 37.9205 101.296 38.216C100.929 38.5114 100.669 38.918 100.558 39.3734C100.507 39.5553 100.481 39.7434 100.482 39.9323L100.475 41.2323Z" fill="#5B6771"/>
<path d="M110.893 39.6091V40.5811H107.114V39.6091H110.893Z" fill="#5B6771"/>
<path d="M112.291 44.1678V37.8498H111.264V36.8364H112.291V36.489C112.291 35.4586 112.536 34.5206 113.146 33.9302C113.636 33.4807 114.283 33.2368 114.952 33.2498C115.345 33.2463 115.734 33.3181 116.099 33.4612L115.927 34.5061C115.658 34.3865 115.365 34.3292 115.07 34.3384C113.922 34.3384 113.63 35.3225 113.63 36.4574V36.851H115.421V37.8643H113.63V44.1824L112.291 44.1678Z" fill="#5B6771"/>
<path d="M116.323 38.8266C116.323 38.0539 116.308 37.4488 116.261 36.8437H117.451L117.527 38.0587H117.556C117.803 37.6335 118.162 37.2825 118.595 37.0429C119.028 36.8033 119.518 36.6841 120.014 36.6979C121.038 36.6979 122.63 37.303 122.63 39.8156V44.1726H121.284V39.9468C121.284 38.7659 120.839 37.7817 119.564 37.7817C119.048 37.7995 118.559 38.0175 118.204 38.3885C117.849 38.7596 117.656 39.2539 117.667 39.7646V44.1678H116.32L116.323 38.8266Z" fill="#5B6771"/>
<path d="M126.009 34.7855C126.012 34.8963 125.992 35.0066 125.95 35.1093C125.907 35.212 125.844 35.3047 125.763 35.3816C125.682 35.4585 125.586 35.5179 125.481 35.5558C125.375 35.5938 125.263 35.6095 125.151 35.602C125.043 35.6051 124.935 35.586 124.834 35.5459C124.733 35.5058 124.642 35.4455 124.566 35.3689C124.489 35.2922 124.43 35.2008 124.391 35.1004C124.353 35.0001 124.335 34.8928 124.34 34.7855C124.337 34.6754 124.357 34.5659 124.398 34.4636C124.439 34.3613 124.501 34.2683 124.58 34.1903C124.658 34.1124 124.752 34.051 124.855 34.0101C124.959 33.9691 125.07 33.9493 125.181 33.952C125.291 33.9496 125.401 33.9696 125.504 34.0109C125.607 34.0521 125.699 34.1136 125.777 34.1917C125.855 34.2698 125.915 34.3628 125.955 34.4649C125.995 34.567 126.013 34.6761 126.009 34.7855ZM124.508 44.1678V36.8437H125.854V44.1678H124.508Z" fill="#5B6771"/>
<path d="M132.985 42.4133C132.978 42.9999 133.013 43.5862 133.09 44.1678H131.882L131.776 43.2444H131.729C131.467 43.5909 131.124 43.8706 130.731 44.0603C130.337 44.2501 129.904 44.3444 129.466 44.3355C127.965 44.3355 127.201 43.2906 127.201 42.2311C127.201 40.4596 128.79 39.4925 131.653 39.5071V39.3661C131.653 38.7756 131.486 37.6651 129.97 37.6845C129.282 37.6769 128.607 37.8669 128.026 38.2313L127.719 37.3371C128.466 36.9113 129.314 36.6922 130.176 36.7028C132.442 36.7028 132.992 38.2313 132.992 39.682L132.985 42.4133ZM131.685 40.4305C130.211 40.4013 128.547 40.6564 128.547 42.0804C128.547 42.9577 129.127 43.3513 129.8 43.3513C130.196 43.3639 130.586 43.2519 130.914 43.0314C131.242 42.8109 131.49 42.4932 131.624 42.1242C131.664 41.9867 131.684 41.8444 131.685 41.7013V40.4305Z" fill="#5B6771"/>
<path d="M134.039 46C135.11 44.5007 135.95 42.5494 135.95 39.8253C135.95 37.1013 135.125 35.1792 134.039 33.6653H135.081C136.044 34.907 137.083 36.8583 137.083 39.8253C137.083 42.7924 136.044 44.7291 135.081 46H134.039Z" fill="#5B6771"/>
<path d="M143.005 18.0792C143.01 18.5368 142.877 18.9855 142.623 19.3683C142.37 19.7511 142.007 20.0508 141.581 20.2292C141.155 20.4077 140.685 20.4569 140.23 20.3706C139.776 20.2843 139.358 20.0664 139.029 19.7445C138.7 19.4226 138.475 19.0114 138.383 18.5629C138.291 18.1144 138.336 17.649 138.512 17.2258C138.688 16.8026 138.987 16.4406 139.371 16.1858C139.756 15.9311 140.208 15.795 140.671 15.795C140.977 15.7871 141.282 15.8406 141.568 15.9523C141.853 16.064 142.112 16.2315 142.33 16.4449C142.548 16.6583 142.72 16.9131 142.836 17.1939C142.952 17.4748 143.01 17.7759 143.005 18.0792ZM142.555 18.0792C142.564 17.8323 142.521 17.5862 142.43 17.3562C142.338 17.1262 142.2 16.9171 142.024 16.7419C141.848 16.5666 141.638 16.4288 141.406 16.337C141.174 16.2452 140.925 16.2013 140.675 16.2081C140.17 16.2081 139.686 16.4065 139.329 16.7597C138.972 17.1129 138.771 17.5919 138.771 18.0914C138.771 18.5908 138.972 19.0699 139.329 19.423C139.686 19.7762 140.17 19.9746 140.675 19.9746C140.925 19.9753 141.173 19.9265 141.404 19.831C141.634 19.7355 141.843 19.5952 142.018 19.4185C142.192 19.2418 142.33 19.0322 142.421 18.8022C142.513 18.5722 142.557 18.3263 142.55 18.0792H142.555ZM141.41 18.5093L141.973 19.3598H141.285L140.793 18.6308H140.336V19.3598H139.648V16.8229H140.766C141.467 16.8229 141.884 17.1753 141.884 17.7244C141.895 17.8879 141.854 18.0505 141.769 18.1907C141.683 18.3309 141.556 18.4421 141.405 18.5093H141.41ZM140.73 18.1181C141.042 18.1181 141.221 17.9747 141.221 17.7244C141.221 17.4741 141.044 17.3259 140.73 17.3259H140.339V18.1181H140.73Z" fill="#00AECA"/>
</g>
<defs>
<clipPath id="clip0_5_1286">
<rect width="143" height="46" fill="white"/>
</clipPath>
</defs>
</svg>
