<svg width="120" height="50" viewBox="0 0 120 50" fill="none" xmlns="http://www.w3.org/2000/svg">
<path d="M99.4703 20.6763L97.3837 22.7619L97.3985 30.4254L90.0046 20.6763H86.2721V36.8716H90.2362V27.192L97.6078 36.8716H101.317V20.6763H99.4703Z" fill="#2C5064"/>
<path d="M111.354 20.6763H106.53L104.355 22.8551L104.353 24.0872V36.8716H111.19C116.453 36.8716 120 33.5908 120 28.7614C120 23.9571 116.499 20.6763 111.354 20.6763ZM111.469 33.4518H108.595V24.1183H111.26C113.834 24.1183 115.665 26.0131 115.665 28.8072C115.665 31.5806 113.926 33.4518 111.469 33.4518Z" fill="#2C5064"/>
<path d="M26.0446 32.7666V16.6748H24.369L21.2183 19.821V36.8638H35.0903V32.7666H26.0446Z" fill="#2C5064"/>
<path d="M68.0993 28.6001V27.0751L63.2195 27.0766L59.8655 30.4313H64.438V32.7817C63.4644 33.2669 62.4448 33.5671 61.633 33.5671C58.9898 33.5671 56.9967 31.5111 56.9967 28.7614C56.9967 26.059 58.9691 23.8905 61.5856 24.0029C63.1884 24.0709 63.8904 24.3357 65.1192 25.2469L67.8545 22.4956C66.1923 21.2206 63.8429 20.4219 61.6093 20.4219C56.4638 20.4219 52.6393 23.9793 52.6393 28.7614C52.6393 33.5671 56.3704 37.1704 61.3317 37.1704C63.6024 37.1704 66.3614 36.2932 68.0993 35.0463V28.6001Z" fill="#2C5064"/>
<path d="M42.4137 30.4318L50.1593 30.423V27.0727H42.4167V24.0463H47.9034L51.2249 20.7049V20.6724L38.175 20.6738V36.8677H51.2249V33.4952H42.4167L42.4137 30.4318Z" fill="#2C5064"/>
<path d="M75.0034 30.4328L82.7475 30.4239V27.0737H75.0064V24.0473H80.4931L83.8146 20.7059V20.6748H70.7648V36.8686H83.8146V33.4962H75.0064L75.0034 30.4328Z" fill="#2C5064"/>
<path d="M21.208 42.5376H24.4196C26.2748 42.5376 26.9901 43.0908 26.9901 44.246C26.9901 45.1098 26.5093 45.5787 25.6336 45.7474V45.7755C26.7274 45.9071 27.2439 46.6201 27.2439 47.4277C27.2439 48.4409 26.5003 49.3136 24.6556 49.3136H21.208V42.5376ZM22.1875 45.3909H24.6927C25.5119 45.3909 26.0106 45.0803 26.0106 44.3584C26.0106 43.7298 25.7004 43.3068 24.3632 43.3068H22.1875L22.1875 45.3909ZM22.1875 48.5444H24.5324C25.8607 48.5444 26.2095 48.0282 26.2095 47.3715C26.2095 46.592 25.6722 46.1615 24.476 46.1615H22.1875V48.5444Z" fill="#2C5064"/>
<path d="M37.9412 42.5376H36.9617V49.3136H37.9412V42.5376Z" fill="#2C5064"/>
<path d="M51.4625 42.3589C54.3164 42.3589 55.2856 44.3114 55.2856 45.9251C55.2856 47.5404 54.3164 49.4914 51.4625 49.4914C48.6086 49.4914 47.6394 47.5404 47.6394 45.9251C47.6394 44.3114 48.6086 42.3589 51.4625 42.3589ZM51.4625 48.7222C53.1114 48.7222 54.2497 47.5966 54.2497 45.9251C54.2497 44.2552 53.1114 43.1295 51.4625 43.1295C49.8137 43.1295 48.6753 44.2552 48.6753 45.9251C48.6753 47.5966 49.8136 48.7222 51.4625 48.7222Z" fill="#2C5064"/>
<path d="M66.905 43.363H64.0228V42.5376H70.7652V43.363H67.8845V49.3136H66.905V43.363Z" fill="#2C5064"/>
<path d="M79.9835 42.5376H85.0695V43.3068H80.963V45.4471H84.8054V46.2163H80.963V48.5445H85.1809V49.3136H79.9835V42.5376Z" fill="#2C5064"/>
<path d="M101.753 47.4279C101.537 48.919 100.124 49.4929 98.4572 49.4929C96.0277 49.4929 94.9072 47.7933 94.9072 45.9251C94.9072 44.3114 95.8778 42.3589 98.7318 42.3589C100.341 42.3589 101.575 43.1665 101.66 44.3202H100.568C100.398 43.4387 99.597 43.1295 98.6546 43.1295C97.1022 43.1295 95.9431 44.0214 95.9431 45.9251C95.9431 47.8318 97.1022 48.7222 98.6546 48.7222C99.5881 48.7222 100.492 48.3095 100.661 47.4279H101.753Z" fill="#2C5064"/>
<path d="M116.838 46.16H112.469V49.3136H111.489V42.5376H112.469V45.3909H116.838V42.5376H117.817V49.3136H116.838V46.16Z" fill="#2C5064"/>
<path d="M15.1545 27.1651L13.0203 25.0381L11.0969 26.9625L13.2622 29.1161C15.6205 31.4665 15.9307 35.2946 13.7475 37.8077C11.2334 40.7024 6.73805 40.7009 4.22396 37.8062C2.04231 35.2931 2.35398 31.4665 4.71223 29.1161L20.7867 13.0954C21.318 12.5659 21.318 11.7065 20.7867 11.1769C20.2554 10.6474 19.3931 10.6474 18.8618 11.1769L2.81849 27.1651C-0.556393 30.5288 -0.957087 35.9928 2.16994 39.5871C5.7704 43.7243 12.1996 43.7243 15.8015 39.5871C18.9301 35.9943 18.5308 30.5288 15.1545 27.1651Z" fill="#E84870"/>
<path d="M6.87183 18.8659L4.56402 16.5658C2.10929 14.1193 2.10929 10.1522 4.56402 7.70567L9.97066 2.31562C10.502 1.78608 10.502 0.926695 9.97066 0.397155C9.43935 -0.132385 8.57707 -0.132385 8.04575 0.397155L2.63913 5.7872C-0.87971 9.2928 -0.87971 14.9772 2.63913 18.4843L4.94692 20.7844L6.87183 18.8659Z" fill="#4264AC"/>
</svg>
