<svg width="195" height="18" viewBox="0 0 195 18" fill="none" xmlns="http://www.w3.org/2000/svg">
<path d="M19.2423 16.5009C17.3362 16.5009 16.2736 14.7066 16.2736 11.4601C16.2736 8.21359 17.3362 6.41929 19.2423 6.41929C21.1483 6.41929 22.2109 8.19011 22.2109 11.4601C22.2109 14.7301 21.1483 16.5009 19.2423 16.5009ZM19.2423 5.0677C15.3594 5.0677 13.2071 7.94529 13.2071 11.4601C13.2071 14.9749 15.3594 17.8525 19.2423 17.8525C23.1251 17.8525 25.2774 14.9749 25.2774 11.4601C25.2774 7.94529 23.1251 5.0677 19.2423 5.0677ZM46.2266 5.0677C44.3948 5.0677 43.3828 5.85585 42.8127 6.862H42.6642V5.31253H39.7462V17.6077H42.6642V9.6658C42.6642 7.84802 43.6054 6.78821 45.1134 6.78821C46.6213 6.78821 47.215 7.74741 47.215 9.19962V17.6077H50.1331V9.17279C50.1331 6.64065 48.7972 5.0677 46.2266 5.0677ZM56.7619 5.0677C54.0665 5.0677 52.0391 6.19794 52.0391 8.60934C52.0391 10.6518 53.4492 11.7586 55.0314 12.151L57.5041 12.7647C58.8164 13.0834 59.4101 13.5529 59.4101 14.5859C59.4101 15.8402 58.5195 16.5546 56.961 16.5546C55.2776 16.5546 54.414 15.7429 54.1408 13.7038L51.5196 14.4417C51.668 16.5579 53.6482 17.8592 56.6405 17.8592C59.9802 17.8592 61.785 16.3097 61.785 13.8514C61.785 11.5406 60.1759 10.5814 58.4959 10.1622L56.121 9.57189C54.9335 9.27676 54.414 8.73679 54.414 7.94864C54.414 6.96597 55.254 6.37569 56.5157 6.37569C58 6.37569 58.9142 7.18732 59.039 8.73679L61.5118 7.99895C61.2149 6.27843 59.5079 5.07441 56.7619 5.07441M69.0279 16.5076C67.1219 16.5076 66.0592 14.7133 66.0592 11.4668C66.0592 8.2203 67.1219 6.426 69.0279 6.426C70.9339 6.426 71.9965 8.19682 71.9965 11.4668C71.9965 14.7368 70.9339 16.5076 69.0279 16.5076ZM69.0279 5.07441C65.145 5.07441 62.9927 7.95199 62.9927 11.4668C62.9927 14.9816 65.145 17.8592 69.0279 17.8592C72.9107 17.8592 75.063 14.9816 75.063 11.4668C75.063 7.95199 72.9107 5.07441 69.0279 5.07441ZM83.274 5.07441C81.4422 5.07441 80.4302 5.86256 79.8601 6.86871H79.7116V5.31924H76.7936V17.6144H79.7116V9.67251C79.7116 7.85473 80.6528 6.79492 82.1608 6.79492C83.6687 6.79492 84.2624 7.75412 84.2624 9.20633V17.6144H87.1805V9.17949C87.1805 6.64735 85.8446 5.07441 83.274 5.07441ZM126.63 16.5076C124.724 16.5076 123.661 14.7133 123.661 11.4668C123.661 8.2203 124.724 6.426 126.63 6.426C128.536 6.426 129.598 8.19682 129.598 11.4668C129.598 14.7368 128.536 16.5076 126.63 16.5076ZM126.63 5.07441C122.747 5.07441 120.595 7.95199 120.595 11.4668C120.595 14.9816 122.747 17.8592 126.63 17.8592C130.513 17.8592 132.665 14.9816 132.665 11.4668C132.665 7.95199 130.513 5.07441 126.63 5.07441ZM153.614 5.07441C151.782 5.07441 150.77 5.86256 150.2 6.86871H150.052V5.31924H147.134V17.6144H150.052V9.67251C150.052 7.85473 150.993 6.79492 152.501 6.79492C154.009 6.79492 154.603 7.75412 154.603 9.20633V17.6144H157.521V9.17949C157.521 6.64735 156.185 5.07441 153.614 5.07441ZM164.15 5.07441C161.454 5.07441 159.427 6.20465 159.427 8.61605C159.427 10.6585 160.837 11.7653 162.419 12.1577L164.892 12.7714C166.204 13.0901 166.798 13.5596 166.798 14.5926C166.798 15.8469 165.907 16.5613 164.349 16.5613C162.665 16.5613 161.802 15.7496 161.528 13.7105L158.907 14.4484C159.056 16.5646 161.036 17.8659 164.028 17.8659C167.368 17.8659 169.173 16.3164 169.173 13.8581C169.173 11.5473 167.563 10.5881 165.883 10.1689L163.509 9.5786C162.321 9.28346 161.802 8.7435 161.802 7.95535C161.802 6.97267 162.642 6.3824 163.903 6.3824C165.388 6.3824 166.302 7.19403 166.427 8.7435L168.899 8.00565C168.602 6.28514 166.896 5.08111 164.15 5.08111M176.415 16.5143C174.509 16.5143 173.447 14.72 173.447 11.4735C173.447 8.22701 174.509 6.43271 176.415 6.43271C178.321 6.43271 179.384 8.20353 179.384 11.4735C179.384 14.7435 178.321 16.5143 176.415 16.5143ZM176.415 5.08111C172.533 5.08111 170.38 7.9587 170.38 11.4735C170.38 14.9883 172.533 17.8659 176.415 17.8659C180.298 17.8659 182.451 14.9883 182.451 11.4735C182.451 7.9587 180.298 5.08111 176.415 5.08111ZM190.662 5.08111C188.83 5.08111 187.818 5.86927 187.248 6.87541H187.099V5.32594H184.181V17.6211H187.099V9.67922C187.099 7.86144 188.04 6.80163 189.548 6.80163C191.056 6.80163 191.65 7.76082 191.65 9.21303V17.6211H194.568V9.1862C194.568 6.65406 193.232 5.08111 190.662 5.08111ZM11.4765 0.392462H8.41005V13.1035C8.41005 15.1694 7.61729 16.3969 5.73827 16.3969C3.85925 16.3969 3.06648 15.0923 3.06648 12.8553V10.4942L0 11.2555V12.312C0 15.5316 1.60914 17.9934 5.73827 17.9934C9.86739 17.9934 11.4765 15.535 11.4765 12.312V0.392462ZM29.926 0.392462H27.008V17.6043H29.926V9.66245C29.926 7.84467 30.8672 6.78486 32.3752 6.78486C33.8831 6.78486 34.4768 7.74406 34.4768 9.19626V17.6043H37.3949V9.16943C37.3949 6.63729 36.059 5.06435 33.4884 5.06435C31.6566 5.06435 30.6446 5.8525 30.0745 6.85864H29.926V0.392462ZM118.864 0.392462H115.798V13.1035C115.798 15.1694 115.005 16.3969 113.126 16.3969C111.247 16.3969 110.454 15.0923 110.454 12.8553V10.4942L107.388 11.2555V12.312C107.388 15.5316 108.997 17.9934 113.126 17.9934C117.255 17.9934 118.864 15.535 118.864 12.312V0.392462ZM137.314 0.392462H134.396V17.6043H137.314V9.66245C137.314 7.84467 138.255 6.78486 139.763 6.78486C141.271 6.78486 141.864 7.74406 141.864 9.19626V17.6043H144.782V9.16943C144.782 6.63729 143.447 5.06435 140.876 5.06435C139.044 5.06435 138.032 5.8525 137.462 6.85864H137.314V0.392462ZM96.8016 16.2024C94.4267 16.2024 92.9694 14.284 92.9694 12.2449C92.9694 10.9671 93.5395 9.78654 94.4773 9.12248L100.067 15.1963C99.0281 15.81 97.8643 16.2058 96.8016 16.2058M102.243 13.1806L97.3953 7.86815C98.2623 7.5227 99.1023 7.40196 99.7939 7.40196C101.798 7.40196 103.032 8.55904 103.032 10.5512C103.032 11.4366 102.786 12.3455 102.24 13.1806M96.724 7.15714L95.6614 5.97659C94.7202 4.94361 94.4503 4.30303 94.4503 3.54171C94.4503 2.11633 95.3645 1.3047 96.7982 1.3047C98.232 1.3047 99.1226 2.13981 99.1226 3.6658C99.1226 5.0677 98.431 6.39582 96.724 7.15714ZM96.8725 0.00341797C93.4585 0.00341797 91.7785 1.89833 91.7785 4.25607C91.7785 5.53388 92.3217 6.81504 93.7588 8.36116L93.7824 8.41147C91.3602 9.56854 90.247 11.4366 90.247 13.355C90.247 15.8872 92.2002 18.0034 95.2195 18.0034C96.9501 18.0034 98.9775 17.2891 100.809 16.0112L102.294 17.611H106.176V17.4869L103.012 14.0191C104.348 12.4461 105.114 10.7256 105.114 9.22309C105.114 7.35501 103.852 6.10068 101.875 6.10068C100.836 6.10068 99.6724 6.39582 98.9067 6.69095L98.8561 6.59369C100.735 5.58419 101.528 4.65182 101.528 3.34719C101.528 1.4791 99.8445 0.00341797 96.8792 0.00341797" fill="#EB1700"/>
</svg>
