<svg xmlns="http://www.w3.org/2000/svg" width="85.757" height="20.795"><path d="m2.73 16.684 1.412-3.833 1.345 3.833Zm4.128 3.862h1.294l-3.358-9.228H3.511l-3.514 9.226h1.306l1.035-2.826h3.516Zm6.141-1.954c0 .752-.611 1.152-1.652 1.152a1.785 1.785 0 0 1-1.72-.78l-1.245.219a2.941 2.941 0 0 0 2.913 1.465c1.928 0 2.935-1.067 2.935-2.2 0-1.461-1.347-1.857-2.9-2.17-.748-.15-1.627-.427-1.627-1.091 0-.473.461-1.019 1.385-1.019a1.759 1.759 0 0 1 1.593.9l1.093-.455a2.726 2.726 0 0 0-2.552-1.345c-1.621 0-2.7.8-2.7 2.07 0 1.445 1.239 1.729 2.438 1.989 1.039.215 2.039.469 2.039 1.265Zm3.812-7.274-1.213.506v1.7h-1.11v.981h1.113v4.5c-.016.916-.016 1.578 1.347 1.578a7.914 7.914 0 0 0 1.14-.118v-.971a3.008 3.008 0 0 1-.77.162c-.5 0-.5-.354-.5-1.182v-3.963h1.274v-.981h-1.281Zm2.338 2.21v7.016h1.176v-3.226a3.564 3.564 0 0 1 .3-1.822c.382-.622.949-.858 2.1-.866v-1.212a2.541 2.541 0 0 0-2.4 1.369V13.53Zm10.545-2.21v1.137h5.243l-5.247 6.888v1.2h6.777v-1.104h-5.356l5.221-6.966v-1.155Zm14.15 2.208v7.016h1.177v-3.975a1.927 1.927 0 0 1 .52-1.57 1.813 1.813 0 0 1 1.339-.532 1.484 1.484 0 0 1 1.5.961 3.838 3.838 0 0 1 .075 1.154v3.965h1.174v-4.157a5.117 5.117 0 0 0-.118-1.436 2.308 2.308 0 0 0-2.3-1.6 2.467 2.467 0 0 0-2.19 1.246V13.53Zm18.283 5.322a1.664 1.664 0 0 1-1.616.916c-.792 0-2.12-.5-2.12-2.811 0-.623.112-2.827 2.047-2.827a1.654 1.654 0 0 1 1.635.991l1.1-.461a3.126 3.126 0 0 0-2.781-1.395c-2.234 0-3.313 1.8-3.313 3.78a3.325 3.325 0 0 0 3.415 3.626 2.968 2.968 0 0 0 2.673-1.385Zm-23.968-2.539h3.718c-.1-1.834-1.162-2.145-1.867-2.145-1.006 0-1.719.739-1.851 2.145Zm4.687 2.893a2.922 2.922 0 0 1-2.7 1.465c-2.072 0-3.264-1.406-3.264-3.766 0-2.633 1.739-3.642 3.219-3.642a2.914 2.914 0 0 1 2.935 2.472 6.391 6.391 0 0 1 .132 1.422h-5.039c-.031 1.171.461 2.654 2.117 2.627a1.666 1.666 0 0 0 1.456-.8Zm8.694-2.893h3.719c-.1-1.834-1.162-2.145-1.867-2.145-1.007 0-1.72.739-1.852 2.145Zm4.688 2.893a2.924 2.924 0 0 1-2.7 1.465c-2.071 0-3.26-1.406-3.26-3.766 0-2.633 1.737-3.642 3.216-3.642a2.912 2.912 0 0 1 2.927 2.473 6.377 6.377 0 0 1 .132 1.422h-5.032c-.029 1.171.463 2.654 2.119 2.627a1.666 1.666 0 0 0 1.456-.8Zm13.374 1.344-1.226.006a7.951 7.951 0 0 1-.139-1.034 3.018 3.018 0 0 1-2.348 1.132 2.124 2.124 0 0 1-2.378-1.993 1.9 1.9 0 0 1 .311-1.053c.4-.593 1.144-1.067 3.232-1.231l1.111-.089v-.177c0-.727 0-1.942-1.566-1.942-.983 0-1.32.476-1.432.908l-1.078-.455a1.006 1.006 0 0 1 .057-.114 2.555 2.555 0 0 1 2.415-1.245 3.5 3.5 0 0 1 2.04.593 2.374 2.374 0 0 1 .761 1.759l.049 3.6a5.455 5.455 0 0 0 .191 1.335Zm-1.61-1.935a3.079 3.079 0 0 0 .191-1.572c-.457.073-1.078.163-1.836.325-1.3.283-1.524.772-1.524 1.262 0 .563.445 1.038 1.317 1.038a1.907 1.907 0 0 0 1.852-1.052Zm-39.131 1.935-1.225.006a7.952 7.952 0 0 1-.14-1.034 3.025 3.025 0 0 1-2.348 1.132 2.126 2.126 0 0 1-2.375-1.993 1.9 1.9 0 0 1 .311-1.053c.4-.593 1.147-1.067 3.234-1.231l1.109-.089v-.177c0-.727 0-1.942-1.564-1.942-.985 0-1.318.476-1.434.908l-1.083-.455.057-.114a2.558 2.558 0 0 1 2.417-1.245 3.494 3.494 0 0 1 2.038.593 2.384 2.384 0 0 1 .764 1.759l.045 3.6a5.6 5.6 0 0 0 .194 1.335Zm-1.611-1.935a3.072 3.072 0 0 0 .193-1.572c-.459.073-1.077.163-1.836.325-1.3.283-1.527.772-1.527 1.262 0 .563.445 1.038 1.32 1.038a1.9 1.9 0 0 0 1.849-1.052Z" fill="#8b0051"/><path d="M77.264 14.641c-.183.117-.366.233-.548.353-2.113-1.174-6.655-3.437-7.049-3.642-.421-.219-1.156-.513-1.063-1.213.13-.982 1.833-3.131 2.556-4.013 3.918-4.791 5.672-6.269 6.837-6.115 1.241.162 1.93 1.445 2.012 7.45a43.191 43.191 0 0 0-2.271-.638 57.233 57.233 0 0 0-.291-2.644c-.069-.513-.169-.708-.376-.736-.234-.03-.806.518-1.324 1.049-.237.241-.9.914-1.637 1.655a1.358 1.358 0 0 0-1.251.387 1.118 1.118 0 0 0-.112.986l-.955.955c-.817.815-1.681 1.488-1.725 1.819-.036.269.378.549.966.9 1.441.859 4.98 2.773 6.231 3.447Zm5.5-5.995a42.387 42.387 0 0 0-8.4-2.23c-1.239-.162-1.739.278-1.227 1.46a19.077 19.077 0 0 0 3.175 4.585c1.366 1.465 2.85 1.859 3.32-.4.018-.08.033-.161.049-.24a15.859 15.859 0 0 0 .242-1.636 84.442 84.442 0 0 0-1.966-.856c.038.518.1 1.412.13 2.1 0 .089.008.173.01.256.041 1.115-.339 1.111-.973.656-.738-.528-3-3.515-3.259-4.835-.012-.087.029-.09.074-.076l.055.022H74c.51.2 2.21.872 3.937 1.6.689.291 1.381.589 2 .871s1.158.535 1.566.753c.746.4 1.036.671.723.99-1.554 1.577-6.978 3.821-8.851 6.594l-.02.027a.883.883 0 0 0-.061.1l-.016.032a2.416 2.416 0 0 0-.272.824c-.079.606.236 1.16 1.107 1.394a3.993 3.993 0 0 0 .738.139c.047 0 .1.008.153.01a25.864 25.864 0 0 0 7.335-1.457c1.365-.606.957-1.209.561-1.522-.3-.236-1.816-1.083-2.553-1.491-.2.126-.352.224-.547.351a21 21 0 0 1 2.044 1.371c.112.089.051.193-.116.2l-.134.01c-1.191.083-3.448.241-4.508.3-.156.01-.331.018-.428.021a7.156 7.156 0 0 1 .7-.571c2.265-1.593 6.043-3.833 7.155-4.8.826-.7 3.063-2.872-1.749-4.552Z" fill="#f0ab00"/></svg>