<?xml version="1.0" encoding="UTF-8"?>
<svg id="Layer_1" data-name="Layer 1" xmlns="http://www.w3.org/2000/svg" xmlns:xlink="http://www.w3.org/1999/xlink" viewBox="0 0 7.5 7.9">
  <defs>
    <style>
      .cls-1 {
        fill: none;
      }

      .cls-1, .cls-2 {
        stroke-width: 0px;
      }

      .cls-2 {
        fill: #00733e;
      }

      .cls-3 {
        clip-path: url(#clippath);
      }
    </style>
    <clipPath id="clippath">
      <rect class="cls-1" width="7.5" height="7.9"/>
    </clipPath>
  </defs>
  <g class="cls-3">
    <g id="Group_15996" data-name="Group 15996">
      <path id="Path_24955" data-name="Path 24955" class="cls-2" d="M.8,7.9c-.1,0-.2-.1-.3-.1-.3-.2-.5-.5-.5-.9V1C0,.5.3.1.7,0h1.9c-.3.2-.3.6-.2.9h-1.3c-.2,0-.3.1-.3.3v5.6c0,.1,0,.2.1.2h5.5c.2,0,.2-.1.2-.3v-1.1q0-.1.1-.1c.3,0,.5-.1.7-.2v1.9h0c0,.3-.2.5-.4.6,0,0-.1.1-.2.1H.8Z"/>
      <path id="Path_24956" data-name="Path 24956" class="cls-2" d="M5.9,2.9h0c-.6.7-1.1,1.2-1.7,1.8-.2.3-.7.3-1,.1q-.1-.1-.2-.2c-.2-.3-.2-.7.1-1,.1-.2.3-.3.5-.5l1.2-1.3.1-.1h-1c-.5-.1-.8-.6-.7-1,0-.1.1-.2.1-.3.2-.2.4-.4.6-.4h2.7c.4,0,.7.2.8.5,0,.1.1.2.1.3v2.8c0,.4-.3.8-.8.9h0c-.4,0-.7-.3-.8-.7h0v-.9q0,.1,0,0"/>
    </g>
  </g>
</svg>