<?xml version="1.0" encoding="UTF-8"?><svg xmlns="http://www.w3.org/2000/svg" xmlns:xlink="http://www.w3.org/1999/xlink" viewBox="0 0 575.887 292.252"><defs><linearGradient id="b" x1="20.091" y1="18.53" x2="142.032" y2="58.151" gradientUnits="userSpaceOnUse"><stop offset="0" stop-color="#f26522"/><stop offset=".56" stop-color="#fff33b"/><stop offset="1" stop-color="#f26522"/></linearGradient><linearGradient id="d" x1="77.419" y1="86.911" x2="77.419" y2="36.911" gradientUnits="userSpaceOnUse"><stop offset="0" stop-color="#1f1f1f"/><stop offset="1" stop-color="#3d3d3d"/></linearGradient><mask id="c" x="44.419" y="36.911" width="66" height="50" maskUnits="userSpaceOnUse"><rect x="44.419" y="36.911" width="66" height="50" fill="url(#d)"/></mask><linearGradient id="e" x1="-6.698" y1="64.286" x2="96.292" y2="89.965" gradientUnits="userSpaceOnUse"><stop offset="0" stop-color="#004122"/><stop offset=".28" stop-color="#006838"/><stop offset=".6" stop-color="#8cbba5"/><stop offset=".91" stop-color="#006838"/></linearGradient></defs><g isolation="isolate"><g id="a"><g><path d="m517.036,224.414h-1.511v4.471h-4.429v-4.471h-7.004v-4.149l7.004-14.378h4.429v14.378h1.511v4.149Zm-5.939-4.149v-5.901l-2.54,5.901h2.54Zm14.451,8.978c-7.621,0-7.038-7.904-7.038-7.904h4.635s-.171,3.791,2.403,3.791c2.026,0,2.609-2.074,2.609-5.114,0-2.575-.618-4.292-2.644-4.256-1.133,0-2.231.894-2.472,3.04l-.034.214h-4.326l1.408-13.126h11.295v4.185h-7.45l-.446,4.328c.893-1.037,2.197-1.609,3.536-1.574,2.644.036,5.493,2.289,5.527,7.189.069,4.972-1.579,9.228-7.004,9.228Zm33.957-9.228v8.87h-4.635v-8.87c0-2.611-.412-3.434-1.339-3.576-1.614-.18-2.197,1.537-2.197,5.114v7.332h-4.635v-8.87c0-2.611-.412-3.434-1.34-3.576-1.613-.18-2.197,1.537-2.197,5.114v7.332h-4.635v-16.095h4.43v1.896c.583-1.288,1.545-2.182,3.124-2.253,2.369-.072,3.708.786,4.429,2.289.755-1.324,1.957-2.218,3.742-2.289,4.463-.144,5.253,2.968,5.253,7.582Zm15.383-7.225v17.418c0,4.649-1.477,5.222-5.768,5.222h-6.798v-3.97h6.798c.893,0,1.201-.394,1.201-1.287v-2.576c.034-.035.068-.106.068-.143h-.068v.143c-.515.859-1.271,1.432-2.438,1.574-4.497.536-7.072-3.326-7.072-8.298,0-4.793,2.575-8.763,7.038-8.369,1.373.143,2.231.858,2.712,1.859v-1.573h4.326Zm-4.463,8.047c0-3.326-.996-4.398-2.369-4.398-1.613,0-2.575,1.287-2.575,4.435s.996,4.363,2.575,4.363c1.477,0,2.369-1.395,2.369-4.399Zm-416.856,41.52c-1.479,0-2.752-1.285-2.752-2.868,0-1.666,1.273-2.95,2.752-2.95,1.561,0,2.875,1.285,2.875,2.95,0,1.583-1.315,2.868-2.875,2.868Zm-2.218,22.068v-19.247h4.519v19.247h-4.519Zm22.426-10.094v10.094h-4.56v-10.094c0-3.423-.041-5.475-2.054-5.603-2.588-.256-3.41,2.226-3.41,6.289v9.409h-4.56v-19.247h4.272v3.251c.657-1.882,1.89-3.251,4.067-3.507,5.874-.728,6.244,3.678,6.244,9.409Zm-.127,13.815h2.259c1.109,0,1.397-.385,1.397-1.497l.041-21.471h4.56v21.471c0,4.705-1.602,5.603-5.997,5.603h-2.259v-4.106Zm5.915-25.79c-1.52,0-2.793-1.326-2.793-2.909,0-1.624,1.273-2.952,2.793-2.952,1.561,0,2.793,1.328,2.793,2.952,0,1.583-1.232,2.909-2.793,2.909Zm20.249,13.857h-11.173c.123,2.993,1.356,4.918,3.533,4.918,2.588,0,2.999-2.608,2.999-2.608h4.395s-.616,6.33-7.394,6.33c-4.806,0-7.764-3.891-7.764-10.008,0-5.816,2.917-10.094,7.764-10.094,5.669,0,8.462,5.603,7.641,11.463Zm-11.132-3.337h7.066c.082-2.267-1.232-4.319-3.574-4.319-1.972,0-3.286,1.925-3.492,4.319Zm28.257,4.619s-.164,7.357-7.394,7.357c-5.299,0-8.051-3.977-8.051-10.221,0-5.904,2.752-9.881,8.051-9.881,7.23,0,7.394,6.587,7.394,6.587h-4.478s-.411-2.696-2.917-2.696c-2.218,0-3.451,1.927-3.451,5.99,0,4.104,1.232,6.33,3.451,6.33,2.793,0,2.917-3.466,2.917-3.466h4.478Zm10.059-8.083h-2.465v9.409c0,1.113.329,1.497,1.438,1.497h1.027v4.106h-1.027c-4.436,0-6.08-.898-6.08-5.603v-9.409h-1.52v-4.235h1.52v-5.645h4.601v5.645h2.506v4.235Zm5.05-7.056c-1.479,0-2.752-1.285-2.752-2.868,0-1.666,1.273-2.95,2.752-2.95,1.561,0,2.875,1.285,2.875,2.95,0,1.583-1.315,2.868-2.875,2.868Zm-2.218,22.068v-19.247h4.519v19.247h-4.519Zm6.94-9.624c0-5.559,2.752-10.051,8.092-10.051,5.381,0,8.092,4.492,8.092,10.051,0,5.645-2.711,10.051-8.092,10.051-5.34,0-8.092-4.534-8.092-10.051Zm4.601,0c0,3.55.986,6.16,3.492,6.16s3.492-2.61,3.492-6.16c0-3.721-.986-6.16-3.492-6.16s-3.492,2.439-3.492,6.16Zm28.216-.471v10.094h-4.56v-10.094c0-3.423-.041-5.475-2.054-5.603-2.588-.256-3.41,2.226-3.41,6.289v9.409h-4.56v-19.247h4.272v3.251c.657-1.882,1.89-3.251,4.067-3.507,5.874-.728,6.244,3.678,6.244,9.409Zm15.521-11.804v2.651h2.793v4.235h-2.793v15.012h-4.56v-15.012h-1.356v-4.235h1.356v-2.651c0-4.703,1.602-5.603,5.997-5.603h1.356v4.108h-1.356c-1.109,0-1.438.385-1.438,1.496Zm3.571,12.275c0-5.559,2.752-10.051,8.092-10.051,5.381,0,8.092,4.492,8.092,10.051,0,5.645-2.711,10.051-8.092,10.051-5.34,0-8.092-4.534-8.092-10.051Zm4.601,0c0,3.55.986,6.16,3.492,6.16s3.492-2.61,3.492-6.16c0-3.721-.986-6.16-3.492-6.16s-3.492,2.439-3.492,6.16Zm23.164-9.624v4.235h-.739c-3.615,0-4.313,1.326-4.313,8.296v-.127l.082,6.843h-4.56v-19.247h4.231l.041,3.464c.616-1.751,1.89-3.464,4.395-3.464h.863Zm22.914,13.343c.329,3.723-2.341,6.33-7.066,6.33-7.353,0-6.86-6.714-6.86-6.714h4.19s-.329,3.208,2.834,3.208c1.109,0,2.341-.769,2.177-2.353-.37-3.464-8.216-2.48-8.791-8.212-.329-3.378,2.752-6.031,6.326-6.031,7.312,0,6.901,5.99,6.901,5.945h-4.231s.288-2.351-2.588-2.351c-1.315,0-2.259.855-2.095,2.138.452,3.294,8.626,2.31,9.202,8.04Zm15.853-13.343v19.247h-4.231v-2.952c-.78,1.796-2.095,3.378-4.272,3.378-4.724,0-5.463-2.993-5.463-8.895v-10.778h4.478v10.778c0,2.909-.123,5.133,2.506,5.133,2.3.043,2.465-2.608,2.465-6.16v-9.751h4.519Zm19.836,9.665c0,5.945-2.999,10.479-8.175,9.924-1.972-.215-3.163-1.412-3.82-3.079v2.737h-4.231v-27.502h4.519v10.178c.698-1.281,1.807-2.138,3.533-2.267,5.135-.385,8.175,4.278,8.175,10.008Zm-4.601,0c0-4.319-1.479-6.158-3.738-6.158s-3.615,1.882-3.615,6.117c0,3.934,1.315,6.115,3.615,6.115,2.177,0,3.738-1.839,3.738-6.074Zm21.725,2.651s-.164,7.357-7.394,7.357c-5.299,0-8.051-3.977-8.051-10.221,0-5.902,2.752-9.881,8.051-9.881,7.23,0,7.394,6.587,7.394,6.587h-4.478s-.411-2.694-2.917-2.694c-2.218,0-3.451,1.925-3.451,5.988,0,4.106,1.232,6.33,3.451,6.33,2.793,0,2.917-3.466,2.917-3.466h4.478Zm16.015-12.316v19.247h-4.231v-2.952c-.78,1.796-2.095,3.378-4.272,3.378-4.724,0-5.463-2.993-5.463-8.895v-10.778h4.478v10.778c0,2.909-.123,5.133,2.506,5.133,2.3.043,2.465-2.608,2.465-6.16v-9.751h4.519Zm10.388,4.235h-2.465v9.409c0,1.111.329,1.496,1.438,1.496h1.027v4.108h-1.027c-4.436,0-6.08-.9-6.08-5.603v-9.409h-1.52v-4.235h1.52v-5.646h4.601v5.646h2.506v4.235Zm16.963,10.904v4.108h-.041c-2.999,0-4.478-.515-5.135-2.181-.904,1.71-2.341,2.566-4.231,2.566-3.944,0-5.915-2.396-5.915-5.475.041-6.33,7.271-6.845,9.736-7.058v-.385c0-2.48-.37-3.466-2.177-3.466-2.383,0-2.3,2.397-2.3,2.397h-4.478c0-.045.082-6.076,6.819-6.076,4.642,0,6.49,2.312,6.49,6.972l.041,5.773v1.412c0,1.07.288,1.412,1.109,1.412h.082Zm-5.587-3.421v-1.624c-2.341.299-5.34.726-5.258,3.764,0,1.453,1.15,2.267,2.3,2.222,1.479,0,2.917-1.24,2.958-4.362Zm22.424-2.566v10.094h-4.56v-10.094c0-3.423-.041-5.475-2.054-5.603-2.588-.256-3.41,2.224-3.41,6.287v9.411h-4.56v-19.247h4.272v3.249c.657-1.882,1.89-3.249,4.067-3.507,5.874-.726,6.244,3.678,6.244,9.411Zm17.248,1.882h-11.173c.123,2.993,1.356,4.918,3.533,4.918,2.588,0,2.999-2.61,2.999-2.61h4.395s-.616,6.33-7.394,6.33c-4.806,0-7.764-3.891-7.764-10.008,0-5.816,2.917-10.094,7.764-10.094,5.669,0,8.462,5.605,7.641,11.465Zm-11.132-3.337h7.066c.082-2.267-1.232-4.319-3.574-4.319-1.972,0-3.286,1.923-3.492,4.319Zm12.812,1.925c0-5.561,2.752-10.053,8.092-10.053,5.381,0,8.092,4.492,8.092,10.053,0,5.645-2.711,10.049-8.092,10.049-5.34,0-8.092-4.534-8.092-10.049Zm4.601,0c0,3.55.986,6.158,3.492,6.158s3.492-2.608,3.492-6.158c0-3.721-.986-6.16-3.492-6.16s-3.492,2.439-3.492,6.16Zm27.395-9.624v19.247h-4.231v-2.952c-.78,1.796-2.095,3.378-4.272,3.378-4.724,0-5.463-2.993-5.463-8.895v-10.778h4.478v10.778c0,2.909-.123,5.133,2.506,5.133,2.3.043,2.465-2.608,2.465-6.16v-9.751h4.519Zm15.975,13.343c.329,3.723-2.341,6.33-7.066,6.33-7.353,0-6.86-6.714-6.86-6.714h4.19s-.329,3.208,2.834,3.208c1.109,0,2.341-.769,2.177-2.353-.37-3.464-8.216-2.48-8.791-8.212-.329-3.378,2.752-6.031,6.326-6.031,7.312,0,6.901,5.99,6.901,5.945h-4.231s.288-2.351-2.588-2.351c-1.315,0-2.259.855-2.095,2.138.452,3.294,8.626,2.31,9.202,8.04Zm23.409-13.343v19.247h-4.231v-2.952c-.78,1.796-2.095,3.378-4.272,3.378-4.724,0-5.463-2.993-5.463-8.895v-10.778h4.478v10.778c0,2.909-.123,5.133,2.506,5.133,2.3.043,2.465-2.608,2.465-6.16v-9.751h4.519Zm15.975,13.343c.329,3.723-2.341,6.33-7.066,6.33-7.353,0-6.86-6.714-6.86-6.714h4.19s-.329,3.208,2.834,3.208c1.109,0,2.341-.769,2.177-2.353-.37-3.464-8.216-2.48-8.791-8.212-.329-3.378,2.752-6.031,6.326-6.031,7.312,0,6.901,5.99,6.901,5.945h-4.231s.288-2.351-2.588-2.351c-1.315,0-2.259.855-2.095,2.138.452,3.294,8.626,2.31,9.202,8.04Zm16.592-2.308h-11.173c.123,2.993,1.356,4.918,3.533,4.918,2.588,0,2.999-2.61,2.999-2.61h4.395s-.616,6.33-7.394,6.33c-4.806,0-7.764-3.891-7.764-10.008,0-5.816,2.917-10.094,7.764-10.094,5.669,0,8.462,5.605,7.641,11.465Zm-11.132-3.337h7.066c.082-2.267-1.232-4.319-3.574-4.319-1.972,0-3.286,1.923-3.492,4.319Zm-335.462-114.476h20.81l3.437-9.443h15.779l6.199-15.344h-16.394l8.197-22.52,8.197,22.52,9.022,24.787h20.81l-29.09-72h-17.878l-29.09,72Zm271.176,0h20.81l3.437-9.443h15.779l6.199-15.344h-16.394l8.197-22.52,8.197,22.52,9.022,24.787h20.81l-29.09-72h-17.878l-29.09,72Zm-344.057,0h17.213l10.689-37.277,10.689,37.277h17.213l22.013-72h-19.279l-11.81,38.63-11.077-38.63h-15.497l-11.077,38.63-11.81-38.63h-19.279l22.013,72Zm156.966,0h19.672v-72h-19.672v72Zm86.183,0h16.375v-72h-19.672v38.291l-29.916-38.291h-17.297v72h19.672v-39.471l30.838,39.471Zm31.719-28.984c0,16.876,14.503,30.557,32.393,30.557s32.393-13.681,32.393-30.557v-43.016h-19.672v43.016c0,7.026-5.696,12.721-12.721,12.721s-12.721-5.696-12.721-12.721v-43.016h-19.672v43.016Zm-273.625,107.533s-7.201-11.936-7.201-32.664c0-20.888,7.201-32.824,7.201-32.824h6.428s-5.421,10.807-5.421,32.824c0,21.856,5.421,32.664,5.421,32.664h-6.428Zm36.318-22.986h-20.212c.232,4.759,2.478,7.259,5.42,7.259,3.717,0,4.259-3.469,4.259-3.469h10.144s-1.162,11.937-14.326,11.937c-9.448,0-15.1-7.34-15.1-18.873,0-10.968,5.73-19.033,15.1-19.033,8.982,0,16.804,7.42,14.713,22.179Zm-20.135-7.42h10.842c.155-3.871-2.633-6.129-5.498-6.129-2.478,0-4.878,2.339-5.343,6.129Zm55.522,4.275c0,11.21-5.808,19.92-15.952,18.711-2.71-.323-4.415-1.694-5.576-3.63v17.743h-10.377v-51.052h9.758v3.871c1.084-2.5,2.942-4.193,6.195-4.516,10.066-.887,15.952,8.066,15.952,18.873Zm-10.609,0c0-7.097-2.091-10.001-5.731-10.001-3.176,0-5.343,2.42-5.343,9.92,0,6.775,2.014,9.921,5.343,9.921,3.485,0,5.731-2.743,5.731-9.84Zm13.704,18.066v-51.858h10.533v51.858h-10.533Zm15.333-18.147c0-10.323,5.343-18.953,15.798-18.953,10.609,0,15.875,8.629,15.875,18.953,0,10.485-5.266,18.954-15.875,18.954-10.455,0-15.798-8.711-15.798-18.954Zm10.533,0c0,5.565,1.393,10.082,5.265,10.082,3.949,0,5.343-4.516,5.343-10.082,0-6.049-1.394-10.081-5.343-10.081-3.872,0-5.265,4.032-5.265,10.081Zm53.277-.645v18.792h-10.454v-18.792c0-5.888,0-8.871-2.711-9.275-5.11-.645-5.42,4.677-5.42,11.614v16.453h-10.454v-36.293h9.757v5.485c1.239-3.146,3.407-5.323,7.047-5.888,11.228-1.775,12.235,6.533,12.235,17.904Zm20.055-7.823h-4.415v14.356c0,2.097.698,2.823,2.71,2.823h1.704v9.436h-1.704c-9.679,0-13.319-1.855-13.319-12.259v-14.356h-2.555v-9.678h2.555v-10.645h10.532v10.645h4.492v9.678Zm31.981,11.695h-20.212c.232,4.759,2.478,7.259,5.42,7.259,3.717,0,4.259-3.469,4.259-3.469h10.144s-1.162,11.937-14.326,11.937c-9.448,0-15.101-7.34-15.101-18.873,0-10.968,5.731-19.033,15.101-19.033,8.982,0,16.804,7.42,14.713,22.179Zm-20.135-7.42h10.842c.155-3.871-2.633-6.129-5.498-6.129-2.478,0-4.878,2.339-5.343,6.129Zm42.28-13.953v9.678h-.387c-7.047,0-7.977,1.694-7.977,15.082l-.077-.403.232,11.936h-10.454v-36.293h9.757v6.049c1.239-2.903,3.639-6.049,8.286-6.049h.62Zm29.194,24.841c.698,7.419-5.033,12.259-14.017,12.259-14.481,0-13.397-13.308-13.397-13.147h9.68s-.774,5.243,4.104,5.243c.852,0,3.02-1.049,2.71-3.226-.464-5.403-14.403-4.436-15.72-14.921-.775-6.613,5.654-11.855,12.468-11.855,14.558,0,13.783,11.614,13.783,11.533h-9.602s.542-3.387-3.949-3.387c-1.859,0-3.098,1.29-2.788,2.903.93,5.081,15.643,4.275,16.727,14.598Zm31.362-3.469h-20.212c.232,4.759,2.478,7.259,5.42,7.259,3.717,0,4.259-3.469,4.259-3.469h10.144s-1.162,11.937-14.326,11.937c-9.448,0-15.1-7.34-15.1-18.873,0-10.968,5.73-19.033,15.1-19.033,8.982,0,16.804,7.42,14.713,22.179Zm-20.135-7.42h10.842c.155-3.871-2.633-6.129-5.498-6.129-2.478,0-4.878,2.339-5.343,6.129Zm52.656,3.549v18.792h-10.455v-18.792c0-5.888,0-8.871-2.71-9.275-5.11-.645-5.42,4.677-5.42,11.614v16.453h-10.455v-36.293h9.758v5.485c1.239-3.146,3.407-5.323,7.047-5.888,11.228-1.775,12.235,6.533,12.235,17.904Zm9.37-5.807c0-22.018-5.42-32.824-5.42-32.824h6.427s7.202,11.936,7.202,32.824c0,20.727-7.202,32.664-7.202,32.664h-6.427s5.42-10.808,5.42-32.664Zm83.316-109.18v2.397h-1.632v-2.397c0-.632-.206-.971-1.088-.971h-1.162v3.368h-1.633v-9.457h2.339c2.53,0,3.412,1.177,3.412,3,0,1.03-.323,1.941-1.132,2.5.618.206.897.662.897,1.559Zm-3.883-2.383h.706c1.177,0,1.794-.676,1.794-1.677,0-1.03-.618-1.588-1.794-1.588h-.706v3.265Zm.868-7.824c-4.418,0-8,3.582-8,8s3.582,8,8,8,8-3.582,8-8-3.582-8-8-8Zm6.5,8c0,3.59-2.91,6.5-6.5,6.5s-6.5-2.91-6.5-6.5,2.91-6.5,6.5-6.5,6.5,2.91,6.5,6.5Z" fill="#006838"/><g><path d="m102.433,0l-15.119,37.422-19.788,48.978h-22.078l19.788-48.978L80.355,0h22.078Zm22.078,0l-15.119,37.422-19.788,48.978h22.078L146.59,0h-22.078ZM37.198,0v52.171l5.959-14.749L58.276,0h-21.078Z" fill="url(#b)"/><g mask="url(#c)"><path d="m65.235,37.422l-6.883,48.978h-12.905l19.788-48.978Zm24.368,48.978h12.905l6.883-48.978-19.788,48.978Z" mix-blend-mode="multiply"/></g><path d="m21.078,37.422L0,89.593v-52.171h21.078Zm66.235,0l-19.788,48.978-15.12,37.422h22.078l15.12-37.422,19.788-48.978h-22.078Zm-44.157,0l-5.959,14.749L8.249,123.822h22.078l15.12-37.422,19.788-48.978h-22.078Z" fill="url(#e)"/></g></g></g></g></svg>