<svg width="143" height="46" viewBox="0 0 143 46" fill="none" xmlns="http://www.w3.org/2000/svg">
<g clip-path="url(#clip0_5_37)">
<path d="M27.9326 28.0934C27.0259 28.2295 24.6449 28.0545 23.3598 27.7921C20.3769 27.1821 18.0008 25.938 16.0376 23.8093C16.828 23.4787 17.5668 23.0385 18.2318 22.502C20.1779 25.328 22.9839 27.2672 26.446 27.9063C26.9332 27.9967 27.4255 28.0576 27.9203 28.0885C27.9203 28.0885 27.9252 28.0934 27.9326 28.0934Z" fill="#C1D82F"/>
<path d="M27.9204 28.0885C27.4257 28.0576 26.9333 27.9967 26.4461 27.9063C22.984 27.2672 20.178 25.328 18.2319 22.5019C18.9316 21.9597 19.5554 21.328 20.0871 20.6235C21.5859 24.4168 25.2642 27.5272 27.9204 28.0885Z" fill="#00AECA"/>
<path d="M21.8686 10.2302C21.9413 9.74726 21.984 9.26035 21.9963 8.77222C22.2621 10.1944 22.287 11.6504 22.07 13.0806C21.1634 19.1726 16.0918 23.7386 9.82862 24.786L6.08887 21.6269C13.9369 22.0498 20.8267 17.1995 21.8686 10.2302Z" fill="#C1D82F"/>
<path d="M0 16.592C1.38091 17.2092 3.45718 18.0209 5.05186 18.2566C12.6935 19.3768 19.7946 15.2385 22.006 8.77954C21.9937 9.26767 21.951 9.75459 21.8783 10.2375C20.8266 17.1995 13.9368 22.0498 6.08877 21.627L0 16.592Z" fill="#00AECA"/>
<path d="M24.4607 4.6826C23.8499 3.76891 23.5789 2.67375 23.6941 1.58435C23.6941 1.55033 23.7359 1.34135 23.7432 1.29761C17.9592 2.99861 13.2267 7.19523 12.3766 12.8693C12.1607 14.3023 12.1956 15.7613 12.4798 17.1826C12.4913 16.6945 12.5331 16.2076 12.6051 15.7245C13.4552 10.0651 18.3032 5.832 24.4607 4.6826Z" fill="#C1D82F"/>
<path d="M28.4756 6.60232C26.9645 6.50755 25.5664 6.18679 24.4607 4.68262C18.3031 5.83201 13.4552 10.0651 12.6099 15.7076C12.538 16.1906 12.4962 16.6775 12.4846 17.1656C13.1038 14.8838 14.5339 12.41 18.136 9.83909C22.3082 6.8599 28.5026 6.60232 28.4756 6.60232Z" fill="#00AECA"/>
<path d="M27.9425 4.47607C29.1923 4.47607 30.2055 3.47407 30.2055 2.23803C30.2055 1.002 29.1923 0 27.9425 0C26.6926 0 25.6794 1.002 25.6794 2.23803C25.6794 3.47407 26.6926 4.47607 27.9425 4.47607Z" fill="#C1D82F"/>
<path d="M32.0925 27.9305C31.0723 27.6695 30.1066 27.2327 29.2397 26.6402L30.7779 23.7558C31.5445 24.303 32.3959 24.7232 33.2989 25C34.2267 25.2927 35.1949 25.4411 36.1688 25.4398C37.2107 25.4398 38.0346 25.2705 38.6407 24.9319C39.2468 24.5933 39.5531 24.1316 39.5597 23.5468C39.5598 23.3142 39.4912 23.0866 39.3625 22.892C39.2337 22.6973 39.0504 22.544 38.8348 22.4509C38.0943 22.1029 37.3206 21.8286 36.5251 21.632C35.6452 21.3863 34.7804 21.0901 33.9353 20.745C33.2602 20.4584 32.662 20.0199 32.1883 19.4644C31.6969 18.8942 31.4512 18.1401 31.4512 17.2021C31.433 16.1671 31.7565 15.1545 32.3726 14.3177C33.0432 13.4411 33.954 12.7732 34.9968 12.3931C36.2522 11.9245 37.5866 11.6977 38.9282 11.7248C39.9816 11.7188 41.0319 11.8388 42.0561 12.082C42.948 12.2887 43.7991 12.6401 44.5747 13.1221L43.152 15.9846C42.5257 15.5602 41.8311 15.2439 41.0978 15.0491C40.3227 14.8404 39.5227 14.7358 38.7194 14.738C37.6448 14.738 36.7971 14.9227 36.1762 15.2921C35.5554 15.6614 35.2441 16.1385 35.2425 16.7234C35.2391 16.8891 35.2718 17.0537 35.3384 17.2059C35.4049 17.3581 35.5038 17.4944 35.6283 17.6054C35.9221 17.8603 36.2635 18.056 36.6332 18.1814C37.0362 18.3304 37.6038 18.5037 38.336 18.7014C39.2099 18.923 40.0671 19.2047 40.9013 19.5446C41.5648 19.8222 42.1537 20.2491 42.6213 20.7912C43.1179 21.399 43.3714 22.166 43.3338 22.9466C43.355 23.9877 43.0266 25.0063 42.4001 25.8432C41.7177 26.7107 40.8049 27.3736 39.7636 27.758C38.4983 28.2351 37.1517 28.4661 35.7978 28.4384C34.5446 28.4437 33.297 28.2727 32.0925 27.9305Z" fill="#00AECA"/>
<path d="M58.9466 15.749L56.4502 28.1614H52.9979L53.2313 26.9464C52.3394 27.7056 51.2367 28.1813 50.0672 28.3113C48.8978 28.4414 47.7159 28.2198 46.6757 27.6754C45.8522 27.2262 45.1715 26.5589 44.71 25.7484C44.2025 24.8425 43.948 23.8192 43.9728 22.7838C43.9537 21.4916 44.271 20.2163 44.8943 19.0805C45.4788 18.0125 46.3438 17.1201 47.3981 16.4974C48.456 15.8754 49.6663 15.5526 50.897 15.5643C52.8267 15.5643 54.188 16.1872 54.9808 17.4329L55.3076 15.749H58.9466ZM52.4155 24.8518C52.9781 24.5004 53.4301 24.0004 53.7203 23.4083C54.0424 22.7473 54.2024 22.0205 54.1871 21.2869C54.2063 20.9186 54.1491 20.5503 54.0189 20.2047C53.8888 19.8591 53.6885 19.5435 53.4303 19.2773C52.9242 18.7913 52.2198 18.5483 51.3172 18.5483C50.6468 18.5345 49.9866 18.7121 49.4157 19.0599C48.8448 19.4077 48.3874 19.911 48.0984 20.5093C47.7762 21.1703 47.6163 21.8971 47.6315 22.6307C47.6112 22.999 47.6682 23.3674 47.7988 23.7129C47.9295 24.0583 48.131 24.3732 48.3908 24.6379C48.8945 25.1239 49.5997 25.3669 50.5014 25.3669C51.176 25.3787 51.84 25.2 52.4155 24.8518Z" fill="#00AECA"/>
<path d="M71.011 16.2325C71.8416 16.6781 72.5288 17.3459 72.9939 18.1595C73.5014 19.0654 73.7558 20.0887 73.731 21.1241C73.7502 22.4163 73.4328 23.6916 72.8096 24.8274C72.2247 25.9026 71.3533 26.799 70.29 27.4192C69.2266 28.0395 68.0118 28.36 66.7773 28.3461C64.8657 28.3461 63.5126 27.7313 62.7182 26.5017L61.4896 32.6375H57.8506L61.2562 15.7489H64.7084L64.4627 16.9639C65.5147 16.0255 66.892 15.5242 68.3081 15.5642C69.2515 15.5594 70.1809 15.7892 71.011 16.2325ZM68.2688 24.8517C68.832 24.5004 69.2848 24.0005 69.576 23.4083C69.8981 22.7473 70.0581 22.0205 70.0429 21.2869C70.0631 20.9189 70.0069 20.5507 69.8776 20.205C69.7482 19.8594 69.5486 19.5436 69.291 19.2773C68.7873 18.7913 68.0821 18.5483 67.1803 18.5483C66.5135 18.5392 65.8579 18.7188 65.2908 19.0659C64.7275 19.4171 64.2748 19.9171 63.9836 20.5093C63.6614 21.1703 63.5015 21.8971 63.5167 22.6307C63.4953 22.9972 63.5496 23.3643 63.6763 23.7094C63.803 24.0545 63.9996 24.3704 64.2539 24.6379C64.7453 25.1239 65.4505 25.3669 66.3547 25.3669C67.0327 25.381 67.7005 25.2022 68.2786 24.8517H68.2688Z" fill="#00AECA"/>
<path d="M86.9456 16.6724C87.7647 17.4095 88.1742 18.4552 88.1742 19.8095C88.174 20.3064 88.1188 20.8019 88.0096 21.2869L86.6115 28.1614H82.9774L84.3312 21.5178C84.3951 21.2371 84.4265 20.9501 84.4246 20.6624C84.4423 20.3949 84.4039 20.1266 84.3117 19.8744C84.2195 19.6222 84.0756 19.3916 83.889 19.1971C83.5302 18.8569 82.9946 18.6893 82.2795 18.6893C81.4325 18.6592 80.6046 18.9425 79.9575 19.4839C79.3433 20.0152 78.9272 20.8115 78.7093 21.8726L77.4488 28.1711H73.8098L77.2621 11.0518H80.9011L79.7364 16.8838C80.8262 16.0007 82.2004 15.5342 83.6088 15.5691C85.0094 15.5659 86.1217 15.9336 86.9456 16.6724Z" fill="#00AECA"/>
<path d="M102.015 16.66C102.834 17.3907 103.244 18.4331 103.244 19.7874C103.243 20.2916 103.188 20.7942 103.079 21.2868L101.679 28.1612H98.0396L99.3935 21.5176C99.4574 21.2369 99.4887 20.95 99.4868 20.6622C99.5059 20.3954 99.469 20.1275 99.3785 19.8753C99.288 19.6232 99.1459 19.3923 98.961 19.197C98.6023 18.8568 98.0641 18.6891 97.3491 18.6891C96.5021 18.659 95.6742 18.9423 95.0271 19.4837C94.4145 20.0102 93.9984 20.8056 93.7789 21.87L92.5209 28.1685H88.8794L91.3758 15.7561H94.8306L94.5504 17.0926C95.6767 16.0766 97.157 15.5314 98.6809 15.5714C100.08 15.5665 101.191 15.9294 102.015 16.66Z" fill="#00AECA"/>
<path d="M117.507 22.9247H107.895C108.019 24.616 109.101 25.4616 111.138 25.4616C111.761 25.464 112.38 25.363 112.969 25.1628C113.531 24.9742 114.051 24.6814 114.502 24.3001L116.021 26.6766C115.304 27.2365 114.489 27.6585 113.615 27.9208C112.693 28.2008 111.734 28.3409 110.77 28.3363C109.602 28.3622 108.442 28.1297 107.376 27.6559C106.45 27.2434 105.67 26.5664 105.136 25.7119C104.604 24.8263 104.333 23.8112 104.354 22.7813C104.335 21.4865 104.66 20.2093 105.298 19.078C105.913 17.9953 106.82 17.1022 107.917 16.4974C109.089 15.8625 110.409 15.5409 111.745 15.5642C112.837 15.5383 113.92 15.7673 114.905 16.2325C115.773 16.6545 116.497 17.3206 116.984 18.1473C117.486 19.0261 117.741 20.0223 117.721 21.0317C117.713 21.6681 117.641 22.3022 117.507 22.9247ZM109.411 18.9541C108.803 19.4351 108.363 20.0931 108.153 20.8349H114.382C114.401 20.4857 114.342 20.1367 114.211 19.8119C114.08 19.4872 113.879 19.1945 113.622 18.9541C113.055 18.4776 112.324 18.2342 111.581 18.2737C110.8 18.2504 110.035 18.4904 109.411 18.9541Z" fill="#00AECA"/>
<path d="M121.137 11.042H124.776L121.333 28.1614H117.697L121.137 11.042Z" fill="#00AECA"/>
<path d="M126.899 27.6535C125.987 27.2309 125.218 26.5556 124.687 25.7095C124.155 24.8294 123.884 23.8188 123.906 22.7935C123.888 21.4976 124.228 20.2215 124.889 19.1023C125.536 18.0144 126.47 17.1207 127.591 16.5168C128.787 15.8759 130.129 15.5503 131.488 15.5715C132.64 15.5453 133.782 15.7823 134.825 16.2641C135.736 16.6879 136.504 17.363 137.037 18.2081C137.569 19.0882 137.84 20.0988 137.818 21.1241C137.838 22.4184 137.504 23.694 136.85 24.8153C136.207 25.9066 135.271 26.8013 134.147 27.4008C132.944 28.0434 131.595 28.369 130.228 28.3461C129.079 28.371 127.94 28.134 126.899 27.6535ZM132.346 24.8517C132.909 24.5005 133.362 24.0005 133.653 23.4083C133.974 22.7469 134.134 22.0204 134.12 21.2869C134.14 20.9201 134.086 20.553 133.959 20.2077C133.832 19.8623 133.636 19.5459 133.383 19.2773C132.891 18.7913 132.191 18.5483 131.282 18.5483C130.612 18.5345 129.951 18.7121 129.381 19.0599C128.81 19.4077 128.352 19.9109 128.063 20.5093C127.741 21.1703 127.581 21.8971 127.596 22.6307C127.576 22.999 127.633 23.3674 127.764 23.7128C127.894 24.0583 128.096 24.3732 128.356 24.6379C128.847 25.1239 129.565 25.3669 130.466 25.3669C131.13 25.3748 131.781 25.1962 132.346 24.8517Z" fill="#00AECA"/>
<path d="M31.7338 33.6653C30.6158 35.1646 29.8222 37.1159 29.8222 39.8715C29.7803 42.064 30.4503 44.2119 31.7338 46H30.6945C29.7288 44.7437 28.6895 42.807 28.6895 39.8545C28.6895 36.9021 29.7288 34.9362 30.6945 33.6653H31.7338Z" fill="#5B6771"/>
<path d="M38.0683 42.4133C38.0608 43 38.0969 43.5864 38.1764 44.1678H36.9675L36.8569 43.2541H36.8102C36.5477 43.6006 36.2055 43.8803 35.812 44.07C35.4185 44.2598 34.9849 44.3541 34.5472 44.3452C33.0459 44.3452 32.2817 43.3003 32.2817 42.2408C32.2817 40.4693 33.874 39.5022 36.7341 39.5168V39.3661C36.7341 38.7756 36.567 37.6651 35.0509 37.6845C34.3633 37.6773 33.6882 37.8672 33.1073 38.2313L32.8026 37.3371C33.5489 36.9105 34.3979 36.6913 35.2598 36.7028C37.5253 36.7028 38.0756 38.2313 38.0756 39.682L38.0683 42.4133ZM36.7685 40.4305C35.2942 40.4013 33.6307 40.6564 33.6307 42.0804C33.6307 42.9577 34.213 43.3513 34.8863 43.3513C35.282 43.3634 35.6714 43.2511 35.9985 43.0306C36.3256 42.8102 36.5737 42.4928 36.707 42.1242C36.7471 41.9867 36.7677 41.8444 36.7685 41.7013V40.4305Z" fill="#5B6771"/>
<path d="M39.9333 38.8266C39.9333 38.0539 39.9185 37.4488 39.8718 36.8437H41.066L41.1422 38.0587H41.1741C41.4208 37.6332 41.7796 37.2819 42.2123 37.0422C42.6451 36.8026 43.1355 36.6836 43.6312 36.6979C44.6559 36.6979 46.2481 37.303 46.2481 39.8156V44.1726H44.8917V39.9469C44.8917 38.7659 44.447 37.7817 43.1717 37.7817C42.6562 37.802 42.169 38.0206 41.8142 38.3911C41.4594 38.7615 41.2649 39.2544 41.2724 39.7646V44.1678H39.9259L39.9333 38.8266Z" fill="#5B6771"/>
<path d="M49.6193 34.7854C49.6227 34.8962 49.6025 35.0065 49.5602 35.1092C49.5179 35.2119 49.4543 35.3046 49.3735 35.3815C49.2927 35.4584 49.1966 35.5178 49.0912 35.5557C48.9859 35.5937 48.8737 35.6094 48.7618 35.6019C48.6533 35.6047 48.5454 35.5853 48.4448 35.5451C48.3441 35.5048 48.253 35.4445 48.1769 35.368C48.1009 35.2914 48.0416 35.2001 48.0027 35.0999C47.9638 34.9997 47.9462 34.8926 47.951 34.7854C47.9479 34.6753 47.9676 34.5658 48.0087 34.4635C48.0498 34.3612 48.1116 34.2682 48.1902 34.1902C48.2688 34.1123 48.3626 34.0509 48.466 34.01C48.5693 33.969 48.68 33.9492 48.7913 33.9519C48.9021 33.9491 49.0122 33.9689 49.1149 34.01C49.2176 34.0511 49.3107 34.1127 49.3883 34.1908C49.466 34.269 49.5266 34.3621 49.5663 34.4644C49.606 34.5667 49.6241 34.6759 49.6193 34.7854ZM48.118 44.1677V36.8436H49.4645V44.1677H48.118Z" fill="#5B6771"/>
<path d="M51.531 44.1678V37.8498H50.5063V36.8365H51.531V36.489C51.531 35.4587 51.7767 34.5207 52.3885 33.9302C52.8776 33.4805 53.5244 33.2365 54.192 33.2498C54.5856 33.2461 54.9761 33.3179 55.342 33.4612L55.1577 34.4915C54.8885 34.3717 54.5952 34.3144 54.3002 34.3238C53.1527 34.3238 52.8627 35.308 52.8627 36.4428V36.8365H54.6515V37.8498H52.8627V44.1678H51.531Z" fill="#5B6771"/>
<path d="M55.5531 39.1231C55.5531 38.2605 55.5384 37.5193 55.4917 36.8389H56.6711L56.7326 38.2969H56.7792C57.1159 37.3249 57.9415 36.6931 58.8432 36.6931C58.9666 36.695 59.0897 36.7047 59.2118 36.7223V37.9786C59.0604 37.9507 58.9062 37.9401 58.7523 37.947C57.8039 37.947 57.1306 38.6444 56.9463 39.648C56.915 39.8531 56.8994 40.0602 56.8996 40.2677V44.1727H55.5531V39.1231Z" fill="#5B6771"/>
<path d="M66.7995 40.445C66.7995 43.1545 64.8878 44.333 63.1138 44.333C61.1235 44.333 59.5632 42.875 59.5632 40.5641C59.5632 38.1341 61.1997 36.6907 63.2342 36.6907C65.3596 36.6931 66.7995 38.2216 66.7995 40.445ZM60.9392 40.5204C60.9392 42.1242 61.8582 43.3367 63.1728 43.3367C64.4873 43.3367 65.4235 42.1412 65.4235 40.4912C65.4235 39.2495 64.7969 37.6918 63.2121 37.6918C61.6272 37.6918 60.9368 39.1425 60.9368 40.5204H60.9392Z" fill="#5B6771"/>
<path d="M68.1926 33.4224H69.5367V44.1678H68.1902L68.1926 33.4224Z" fill="#5B6771"/>
<path d="M77.6943 42.1557C77.6943 42.9285 77.7091 43.5943 77.7557 44.1678H76.5616L76.4854 42.9722H76.4535C76.2049 43.3963 75.8457 43.7465 75.4135 43.9863C74.9813 44.2261 74.4918 44.3467 73.9963 44.3355C72.8317 44.3355 71.4409 43.6842 71.4409 41.1254V36.8438H72.7874V40.8849C72.7874 42.2772 73.2297 43.2298 74.4386 43.2298C74.8232 43.2244 75.1975 43.106 75.5138 42.8896C75.8302 42.6733 76.0743 42.3688 76.2151 42.0148C76.2994 41.7969 76.3411 41.5652 76.338 41.332V36.8438H77.6845L77.6943 42.1557Z" fill="#5B6771"/>
<path d="M79.611 38.8265C79.611 38.0538 79.579 37.4487 79.5496 36.8436H80.7265L80.788 38.0392H80.8396C81.0631 37.6203 81.4012 37.2721 81.8152 37.034C82.2292 36.796 82.7025 36.6778 83.1812 36.693C83.6388 36.6898 84.0859 36.8288 84.4593 37.0904C84.8327 37.352 85.1136 37.723 85.2624 38.151H85.2919C85.4982 37.7751 85.786 37.449 86.1347 37.196C86.597 36.8409 87.1715 36.6593 87.7564 36.6833C88.7515 36.6833 90.2135 37.3175 90.2135 39.8617V44.158H88.8989V40.0269C88.8989 38.603 88.3633 37.7719 87.292 37.7719C86.9332 37.7866 86.5873 37.9088 86.3003 38.1223C86.0134 38.3359 85.7988 38.6306 85.685 38.9675C85.6155 39.1828 85.5791 39.4072 85.5769 39.6333V44.158H84.2623V39.7791C84.2623 38.6127 83.7414 37.7816 82.7168 37.7816C81.8888 37.7816 81.2622 38.4474 81.0484 39.1133C80.9718 39.3218 80.9352 39.5427 80.9403 39.7645V44.1677H79.611V38.8265Z" fill="#5B6771"/>
<path d="M97.2777 42.4133C97.2707 42.9999 97.306 43.5862 97.3834 44.1678H96.1745L96.0737 43.2541H96.027C95.7643 43.6009 95.4217 43.8808 95.0277 44.0706C94.6337 44.2603 94.1997 44.3544 93.7616 44.3452C92.2627 44.3452 91.4961 43.3003 91.4961 42.2408C91.4961 40.4693 93.0883 39.5022 95.9509 39.5167V39.3661C95.9509 38.7756 95.7813 37.6651 94.2677 37.6845C93.58 37.6769 92.9048 37.8668 92.3241 38.2313L92.017 37.337C92.7635 36.9109 93.6123 36.6918 94.4741 36.7028C96.7396 36.7028 97.29 38.2313 97.29 39.682L97.2777 42.4133ZM95.9754 40.4304C94.5012 40.4013 92.8401 40.6564 92.8401 42.0804C92.8401 42.9576 93.42 43.3513 94.0933 43.3513C94.4891 43.3641 94.8789 43.2522 95.2062 43.0316C95.5334 42.811 95.7813 42.4932 95.914 42.1241C95.9554 41.9869 95.9761 41.8445 95.9754 41.7013V40.4304Z" fill="#5B6771"/>
<path d="M99.1428 33.4224H100.475V38.0248H100.497C100.971 37.2059 101.828 36.6932 103.023 36.6932C104.873 36.6932 106.16 38.2046 106.16 40.4159C106.16 43.033 104.475 44.3355 102.824 44.3355C101.752 44.3355 100.895 43.9248 100.33 42.9723H100.298L100.221 44.1678H99.074C99.1035 43.6818 99.1354 42.9285 99.1354 42.2773L99.1428 33.4224ZM100.475 41.2324C100.471 41.3963 100.491 41.5599 100.534 41.7184C100.644 42.1655 100.904 42.5626 101.271 42.8457C101.638 43.1288 102.09 43.2813 102.556 43.2785C103.978 43.2785 104.804 42.1437 104.804 40.4621C104.804 39.0041 104.04 37.7381 102.593 37.7381C102.119 37.7526 101.664 37.9206 101.296 38.216C100.929 38.5115 100.669 38.9181 100.558 39.3734C100.507 39.5554 100.481 39.7435 100.482 39.9323L100.475 41.2324Z" fill="#5B6771"/>
<path d="M110.893 39.6091V40.5811H107.114V39.6091H110.893Z" fill="#5B6771"/>
<path d="M112.291 44.1678V37.8498H111.264V36.8364H112.291V36.489C112.291 35.4586 112.536 34.5206 113.146 33.9302C113.636 33.4807 114.283 33.2368 114.952 33.2498C115.345 33.2463 115.734 33.3181 116.099 33.4612L115.927 34.5061C115.658 34.3865 115.365 34.3292 115.07 34.3384C113.922 34.3384 113.63 35.3225 113.63 36.4574V36.851H115.421V37.8643H113.63V44.1824L112.291 44.1678Z" fill="#5B6771"/>
<path d="M116.323 38.8265C116.323 38.0538 116.308 37.4487 116.261 36.8437H117.451L117.527 38.0587H117.556C117.803 37.6335 118.162 37.2824 118.595 37.0428C119.028 36.8032 119.518 36.684 120.014 36.6979C121.038 36.6979 122.63 37.3029 122.63 39.8156V44.1726H121.284V39.9468C121.284 38.7658 120.839 37.7816 119.564 37.7816C119.048 37.7994 118.559 38.0174 118.204 38.3885C117.849 38.7595 117.656 39.2538 117.667 39.7645V44.1677H116.32L116.323 38.8265Z" fill="#5B6771"/>
<path d="M126.009 34.7856C126.012 34.8965 125.992 35.0068 125.95 35.1094C125.907 35.2121 125.844 35.3049 125.763 35.3818C125.682 35.4587 125.586 35.518 125.481 35.5559C125.375 35.5939 125.263 35.6096 125.151 35.6021C125.043 35.6052 124.935 35.5862 124.834 35.546C124.733 35.5059 124.642 35.4457 124.566 35.369C124.489 35.2923 124.43 35.2009 124.391 35.1006C124.353 35.0002 124.335 34.893 124.34 34.7856C124.337 34.6756 124.357 34.566 124.398 34.4637C124.439 34.3614 124.501 34.2684 124.58 34.1905C124.658 34.1125 124.752 34.0512 124.855 34.0102C124.959 33.9692 125.07 33.9495 125.181 33.9521C125.291 33.9497 125.401 33.9698 125.504 34.011C125.607 34.0522 125.699 34.1138 125.777 34.1918C125.855 34.2699 125.915 34.3629 125.955 34.465C125.995 34.5671 126.013 34.6763 126.009 34.7856ZM124.508 44.1679V36.8438H125.854V44.1679H124.508Z" fill="#5B6771"/>
<path d="M132.985 42.4133C132.978 42.9998 133.013 43.5861 133.09 44.1677H131.882L131.776 43.2443H131.729C131.467 43.5908 131.124 43.8705 130.731 44.0603C130.337 44.25 129.904 44.3443 129.466 44.3354C127.965 44.3354 127.201 43.2905 127.201 42.231C127.201 40.4596 128.79 39.4924 131.653 39.507V39.366C131.653 38.7756 131.486 37.665 129.97 37.6845C129.282 37.6769 128.607 37.8668 128.026 38.2312L127.719 37.337C128.466 36.9112 129.314 36.6921 130.176 36.7028C132.442 36.7028 132.992 38.2312 132.992 39.682L132.985 42.4133ZM131.685 40.4304C130.211 40.4012 128.547 40.6564 128.547 42.0804C128.547 42.9576 129.127 43.3513 129.8 43.3513C130.196 43.3639 130.586 43.2518 130.914 43.0313C131.242 42.8108 131.49 42.4932 131.624 42.1241C131.664 41.9866 131.684 41.8443 131.685 41.7013V40.4304Z" fill="#5B6771"/>
<path d="M134.039 46C135.11 44.5007 135.95 42.5494 135.95 39.8253C135.95 37.1013 135.125 35.1792 134.039 33.6653H135.081C136.044 34.907 137.083 36.8583 137.083 39.8253C137.083 42.7924 136.044 44.7291 135.081 46H134.039Z" fill="#5B6771"/>
<path d="M143.005 18.0792C143.01 18.5367 142.877 18.9854 142.623 19.3682C142.37 19.7511 142.007 20.0507 141.581 20.2292C141.155 20.4076 140.685 20.4568 140.23 20.3705C139.776 20.2842 139.358 20.0663 139.029 19.7444C138.7 19.4226 138.475 19.0113 138.383 18.5628C138.291 18.1144 138.336 17.649 138.512 17.2257C138.688 16.8025 138.987 16.4405 139.371 16.1858C139.756 15.931 140.208 15.795 140.671 15.795C140.977 15.7871 141.282 15.8406 141.568 15.9522C141.853 16.0639 142.112 16.2315 142.33 16.4449C142.548 16.6582 142.72 16.913 142.836 17.1938C142.952 17.4747 143.01 17.7758 143.005 18.0792ZM142.555 18.0792C142.564 17.8322 142.521 17.5862 142.43 17.3562C142.338 17.1262 142.2 16.9171 142.024 16.7418C141.848 16.5665 141.638 16.4287 141.406 16.3369C141.174 16.2451 140.925 16.2013 140.675 16.2081C140.17 16.2081 139.686 16.4065 139.329 16.7596C138.972 17.1128 138.771 17.5918 138.771 18.0913C138.771 18.5908 138.972 19.0698 139.329 19.423C139.686 19.7761 140.17 19.9746 140.675 19.9746C140.925 19.9753 141.173 19.9265 141.404 19.8309C141.634 19.7354 141.843 19.5952 142.018 19.4185C142.192 19.2418 142.33 19.0322 142.421 18.8021C142.513 18.5721 142.557 18.3263 142.55 18.0792H142.555ZM141.41 18.5093L141.973 19.3598H141.285L140.793 18.6308H140.336V19.3598H139.648V16.8228H140.766C141.467 16.8228 141.884 17.1752 141.884 17.7244C141.895 17.8878 141.854 18.0505 141.769 18.1907C141.683 18.3309 141.556 18.442 141.405 18.5093H141.41ZM140.73 18.118C141.042 18.118 141.221 17.9747 141.221 17.7244C141.221 17.4741 141.044 17.3259 140.73 17.3259H140.339V18.118H140.73Z" fill="#00AECA"/>
</g>
<defs>
<clipPath id="clip0_5_37">
<rect width="143" height="46" fill="white"/>
</clipPath>
</defs>
</svg>
