<svg width="135" height="135" viewBox="0 0 135 135" fill="none" xmlns="http://www.w3.org/2000/svg">
<path d="M67.5 128.78C33.9381 128.78 6.41043 101.062 6.41043 67.5C6.41043 59.9561 7.72966 52.7932 10.2776 46.1017L46.0065 118.036C46.478 118.983 47.0447 119.731 48.1735 119.731C49.307 119.731 49.9261 118.964 50.3404 118.036L66.7427 81.1734C66.9333 80.7971 67.119 80.4209 67.4952 80.4209C67.8715 80.4209 68.062 80.7971 68.2477 81.1734L84.65 118.036C85.0644 118.964 85.6883 119.731 86.817 119.731C87.9457 119.731 88.5173 118.979 88.984 118.036L124.713 46.1017C127.256 52.7979 128.575 59.9608 128.575 67.5C128.59 101.062 101.062 128.78 67.5 128.78ZM67.5 53.6409C67.1238 53.6409 66.9333 53.2647 66.7475 52.8884L47.5162 9.71089C53.7409 7.44867 60.5276 6.22469 67.5 6.22469C74.4772 6.22469 81.2639 7.44867 87.4885 9.71089L68.2573 52.8884C68.0667 53.2647 67.8763 53.6409 67.5 53.6409ZM47.983 97.9519C47.6067 97.9519 47.4162 97.5757 47.2305 97.1994L16.1213 34.5049C21.684 26.018 29.1327 18.855 38.0863 13.8591L60.4276 63.6376C60.8038 64.5805 61.3706 64.771 62.1231 64.771H72.8722C73.6247 64.771 74.1914 64.5805 74.5677 63.6376L96.9089 13.8591C105.863 18.855 113.316 26.0227 118.874 34.5049L87.7648 97.1994C87.5743 97.5757 87.3885 97.9519 87.0123 97.9519C86.636 97.9519 86.4455 97.5757 86.2598 97.1994L74.5724 70.4242C74.1962 69.4812 73.6294 69.2907 72.8769 69.2907H62.1278C61.3753 69.2907 60.8086 69.4812 60.4323 70.4242L48.745 97.1994C48.5497 97.5709 48.3592 97.9519 47.983 97.9519ZM67.5 135C104.834 135 135 104.834 135 67.5C135 30.1662 104.834 0 67.5 0C30.1662 0 0 30.1662 0 67.5C0 104.834 30.1662 135 67.5 135Z" fill="#002F62"/>
</svg>
